<?xml version="1.0" encoding="utf-8"?>
<!-- Generator: Adobe Illustrator 24.0.1, SVG Export Plug-In . SVG Version: 6.00 Build 0)  -->
<svg version="1.1" id="Capa_1" xmlns="http://www.w3.org/2000/svg" xmlns:xlink="http://www.w3.org/1999/xlink" x="0px" y="0px"
	 viewBox="0 0 560 601" style="enable-background:new 0 0 560 601;" xml:space="preserve">
<style type="text/css">
	.st0{fill:#A4F4E5;}
	.st1{fill:#EFF3F4;}
	.st2{fill:#E0B605;}
	.st3{fill:#494949;}
	.st4{fill:#BC5B0C;}
	.st5{fill:#7E8469;}
	.st6{fill:#29A3C7;}
	.st7{fill:#553231;}
	.st8{fill:#302F2F;}
	.st9{fill:#CCCC44;}
	.st10{fill:#4F5246;}
	.st11{fill:#FCAE7A;}
	.st12{fill:#CBE9F5;}
	.st13{fill:#FDFEFD;}
	.st14{fill:#3F7B36;}
	.st15{fill:#54CE05;}
	.st16{fill:#9E3E13;}
	.st17{fill:#BF1111;}
	.st18{fill:#FC1515;}
	.st19{fill:#C75317;}
	.st20{fill:#EF811F;}
	.st21{fill:#EEB257;}
	.st22{fill:#DAAB9B;}
	.st23{fill:#721830;}
	.st24{fill:#D4CCCA;}
	.st25{fill:#3A5DEF;}
	.st26{fill:url(#SVGID_1_);}
	.st27{fill:#F9F9F9;}
	.st28{fill:#FFFFFF;}
</style>
<rect class="st0" width="560" height="539"/>
<g>
	<path class="st1" d="M84.1,216.8c-10.4,0-20.8-0.1-31.2,0.1c-4.5,0.1-8.7-0.4-12.4-3.3c-6.1-4.7-10.9-10.2-11-18.4
		c0-6.9-0.7-13.8,2.5-20.6c5-10.7,15.5-17.3,27-15.2c3.3,0.6,4.4-0.7,5.4-3.1c6.6-15.5,21.7-24.3,39.1-20.4
		c8,1.8,14.4,6.3,19.4,12.6c1.8,2.3,3.1,2.3,5.7,1.3c6.8-2.5,13.7-3.2,20.7,0.1c13,6,18.7,16.5,19,30.4c0.1,4.3-0.2,8.6,0.1,12.8
		c0.7,13.5-10.5,24.7-23.6,23.7c-2.7-0.2-5.5,0-8.3,0C133.1,215.6,90.7,216.8,84.1,216.8z"/>
	<path class="st1" d="M273.8,162.6c-3.4,0-6.7-0.3-10,0c-15.9,1-29.6-10.2-28.7-23.7c0.3-4.3,0-8.6,0.1-12.8
		c0.3-13.9,7.2-24.3,23-30.4c8.5-3.3,16.9-2.6,25.1-0.1c3.2,1,4.7,1,6.9-1.3c6-6.4,13.8-10.8,23.5-12.6c21.1-3.9,39.5,4.9,47.5,20.4
		c1.3,2.4,2.5,3.7,6.6,3.1c13.9-2.1,26.8,4.5,32.8,15.2c3.8,6.8,3,13.7,3,20.6c-0.1,8.2-6,13.7-13.4,18.4c-4.5,2.9-9.5,3.3-15.1,3.3
		c-12.7-0.2-25.3-0.1-38-0.1C329.2,162.6,277.6,161.4,273.8,162.6z"/>
	<path class="st2" d="M559.7,345c0.1,2.7,0.2,5.5,0.2,8.2c0,35,0,70,0,105c0,1.7-0.1,3.4-0.2,5c-5.5,0-11-0.1-16.5-0.1
		c0-16.7,0-33.3,0-49.9c0-8.1,0-16.2,0-24.3c0-1.9-0.2-3.5,2.6-3.9c3.1-0.5,2-3.3,2-5.3c-0.1-2.4-2.1-1.8-3.5-1.8
		c-25.4,0-50.8,0-76.2,0c-1.3,0-3.2-0.6-3.4,1.3c-0.2,2-0.1,5.4,1.8,5.6c4.6,0.5,3.4,3.5,3.4,5.9c0.1,24.1,0.1,48.3,0.1,72.4
		c-9.8,0-19.6,0-29.4,0c0.1-3.6-2.6-2.7-4.5-2.7c-19.9,0-39.7,0-59.6,0c-17.3,0-34.5,0-51.8,0c-1.6,0-3.8,1-4.6-1.7
		c1.7,0,3.4-0.1,5-0.1c37,0,74,0,111,0c5.3,0,5.3,0,5.3-5.2c0-33.9,0-67.8,0-101.7c0-2.3-0.2-4.5-1-6.7c1.4-0.1,2.7-0.1,4.1-0.1
		C483,345,521.4,345,559.7,345z"/>
	<path class="st3" d="M559.7,345c-38.4,0-76.7,0-115.1,0c-1.4,0-2.7,0.1-4.1,0.1c-2.6,0.1-3.9-0.7-3.7-3.6c0.3-4.1,0-8.2,0.1-12.3
		c0.1-2.9-0.1-5.6-1.9-8.1c1-0.1,1.8-0.5,1.8-1.7c-0.2-3.5,1.8-4,4.6-3.9c4,0.1,7.9,0.2,11.9,0.1c3.7-0.1,6.1-0.6,6.5-4.6
		c0.1-0.3,0.1-0.5,0.1-0.8l0,0c0.3,0,0.5,0,0.8-0.1c0,5.5,0,5.5,5.4,5.5c29.1,0,58.1,0,87.1,0c1.2,0,2.5,0,3.7-0.1
		c0.8,0,1.5-0.2,2-0.9c1.2-1.8,0.1-9.8-1.8-10.2c-5-1.2-6.6-6-10.2-8.8c-6.5-4.9-12.4-10.8-18.3-16.5c-3.7-3.5-7.8-6.7-11.2-10.6
		c-2.7-3.1-5.1-4.4-8.8-7.4c-2.4,3-6.6,5.2-9.1,7.9c-7.4,7.8-16.2,14.1-23.8,21.6c-2.7,2.6-5.4,5.1-8.4,7.4
		c-2.3,1.7-4.8,4.3-6.4,7.1c-0.8,0.1-0.8,0.9-1.9,1.1c-3.8,1-7.6,0.6-12.3,0.2c8.6-8,16.6-15.4,24.6-22.8
		c10.7-9.6,21.4-19.1,32.1-28.7c5.5-5,5.4-5,10.9,0c14.4,13,28.7,26.1,43.1,39c1.9,1.7,2.9,3.5,2.8,6.2
		C559,315.2,560.5,330.1,559.7,345z"/>
	<path class="st1" d="M471.1,283.7c-8,7.4-15.9,14.7-24.6,22.8c4.7,0.4,11-0.3,14.8-1.3c1.6,1-0.9,4.3-0.6,5.7c0,0-1.6-0.5-1.8-0.1
		c-0.6,0-5.5,0.1-9.2,0c-16.6,0-33.2,0.1-49.8,0.1c-8.5,0-17.1-0.1-25.6-0.2c-0.1-0.9,0.1-2-0.3-2.7c-5.6-8.3-4-17.4-2.1-26.1
		c1.6-7.4,5.6-14,14.1-16.1c4.8-1.2,9.4-0.5,13.9,0.6c2.4,0.6,3.4,0,4.9-1.7c10.2-11.4,23.6-11.1,34.8-3.6c3,2,4.7,5.8,6.6,9.1
		c1,1.8,2.1,3.7,4.8,3.4c7.8-0.8,13.8,2.4,18.2,8.9C469.7,283,470.5,283.3,471.1,283.7z"/>
	<path class="st4" d="M202.7,364.4c-4.7-0.9-6.8-3.5-7.3-8.9c-0.4-5.1,0.4-10,1.5-15c2.1-10.2,5.3-20,9.3-29.6c3-7.2,7.4-12.9,16-13
		c8.7-0.1,15.8,3.3,21.2,10.5c5.2,6.9,4.5,14.6,4.1,22.4c-0.3,4.6-1.2,9.2-4,13.2c-1.1,1.5-0.7,3.5-0.6,5.4
		c0.3,5.3,0.6,10.7-1.1,15.9c-0.7,0.1-1.5,0.2-2.2,0.5c-6.1,2.7-12.5,1.5-18.7,0.8c-2-0.3-4.1-1.3-6.4-1c-0.5,0-1,0-1.5,0
		C209.6,365.1,206.1,364.7,202.7,364.4z M245.5,340.5c0-0.9-0.5-1.1-1.1-1c-0.3,0.1-0.7,0.4-0.8,0.9c-0.1,0.8,0.5,1.2,0.9,1.2
		C245,341.5,245.6,341,245.5,340.5z"/>
	<path class="st5" d="M100,502.5c-0.6-0.3-1-0.7-1-1.4c0-4.4-0.3-8.8-1-13.1c-0.4-4.8,1-9.8-0.9-14.6c-0.4-1.9-0.9-3.8-1.3-5.8
		c-2.3-9.9-8.5-17.3-15.3-25.5c-2.8,9-5.4,17.2-7.9,25.5c-3.3,7.2-6.6,14.4-9.9,21.8c0.7,1.1,2.5,1.7,3.1,3.3
		c-0.1,1.5-0.8,3-2.5,2.6c-2.6-0.6-2.3,1.1-2.4,2.5c0,0.5,1.2,1.3-0.4,1.3c-0.9,0-2,0.1-1.7-1.4c0.2-0.7,0.5-1.4,0.7-2.2
		c0.1-0.2,0.2-0.4,0.3-0.6c-0.2,0.1-0.4,0.2-0.6,0.4c-7.4,1.3-13.1-0.8-16.2-8c1.7-5.8,6.8-9.5,9-15.1c0.5-1.3,0.9-2.5,1.1-3.8
		c4.8-5,6.4-11.6,8.7-17.8c1.4-3.8,2.3-7.9,2.4-12.1c0.1-3.3-0.3-6.4-2.5-9c6.9-0.5,13.8,0.3,20.7-1.8c3.1-1,6.8-0.2,10.3-0.2
		c6.8,13.1,13.7,26.2,18.1,40.4c1.3,3.8,0.1,8.3,3.1,12c1.5-1.1,3.3-1.2,5.2-0.9c-3.2,2.7-6.7,5.2-8.8,9c-1,1.9-3.1,2.9-5.1,3.7
		c-3.5,4.7-3.9,3.7-5.4,8.9C99.6,501.2,99.9,501.8,100,502.5z"/>
	<path class="st6" d="M213.1,365.4c0.5,0,1,0,1.5,0c2.4,1.3,1.7,3.6,1.8,5.7c0.2,4.7,0.2,4.7,5,5.1c2.1,0.2,5.2-0.2,5.9,1.5
		c1.1,3,3.9,4.1,5.5,6.4c0.8,1.2,2,2.1,2,3.9c0.1,7.1,0,14.1,1.5,21.1c1.2,5.2,0.2,10.9,0.1,16.4c-2.5,0.4-3.2,3.6-6,3.7
		c-9.8,0.5-19.4,0.2-28.1-5.4c-2-4.5-1.2-9.2-1-13.8c0.1-1.8,0.3-3.6,0.4-5.4c1.7-2.5,1-5,0.1-7.5c0-0.9,0-1.8,0-2.7
		c0-0.6,0-1.1,0.1-1.7l0,0c1.1-5.9,2.7-11.7,6.7-16.5c3.6,0.5,4.8-1.1,4.4-4.6C212.7,369.6,213,367.5,213.1,365.4z"/>
	<path class="st5" d="M202.3,423.8c8.6,5.6,18.3,5.9,28.1,5.4c2.8-0.1,3.5-3.3,6-3.7c4.6-0.3,3.1-3.7,3.1-6.3
		c3.5,10.6,9.8,19.8,14.6,30c-7.1,3.9-14.9,5.5-22.3,8.3c-2.5,0.1-5,0.1-7.4,1c-0.8,0.1-1.6,0.1-2.4,0.1c-4.4-0.5-8.6-1.5-12.9-2.5
		c-2.6-1.9-5.3-3.5-8.2-4.9c-4.1-2.9-8.3-5.5-13.9-6.4C191.6,437.2,196.6,430.3,202.3,423.8z"/>
	<path class="st7" d="M55.8,321.2c0.6-3,1.1-6,1.9-8.9c0.9-3-2.1-5-1.5-7.8c3.1,0.9,5.2-1.4,7.4-2.5c6.4-3.2,13-3.8,19.6-2.3
		c6.3,1.4,12.2,2.4,18.4-0.8c0.7,5.4-1.5,9.3-4.2,12.9c-3.3,1.2-6.8,1.3-10.3,1.4c-0.1,1.9,1.1,3.1,1.9,4.3c2.5,3.9,3,8.3,2.4,12.7
		c-0.2,1.3-0.3,2.8-2.5,2.7c-0.3-2.7-0.2-5.5-1.4-8c-1.4-2.9-3.8-3.6-5.8-1.8c-3.9,3.5-3.1,13.7,1.5,16.1c1.6,0.9,1.8,1.7,1.9,3.1
		c0.1,2.2,0.1,4.3-0.9,6.2c-0.9,0.3-1.8,0.7-2.7,1c-4,0.1-8,0.1-12,0.1c-1.2-0.2-2.5-0.4-3.7-0.6c-0.1-0.2-0.3-0.3-0.5-0.3
		c-0.3-0.5-0.5-1.1-1.2-1.2C58.8,339.6,57.1,330.5,55.8,321.2z"/>
	<path class="st8" d="M320.1,458.8c0.7,2.7,3,1.6,4.6,1.7c17.3,0.1,34.5,0,51.8,0c19.9,0,39.7,0,59.6,0c2,0,4.6-0.9,4.5,2.7
		c0,1.5,0,3.1,0,4.6c-0.9,1.5-3.4,0.3-3.9,1.9c-1.1,3.5-3.8,2.8-6.3,2.8c-31.7,0-63.5,0-95.2,0c-1.6,0-3.4-0.6-4.8,0.7
		c-0.6,0-1.3,0-1.9,0c-1.7-1.5-3.8-0.9-5.7-0.7c-3.4,0.4-4.7-1-4.7-4.2c-0.1-0.5-0.2-0.9-0.3-1.3c0-2.1,0-4.2,0-6.3
		c0.2-0.7,0.5-1.3,0.7-1.9C319,458.8,319.6,458.8,320.1,458.8z"/>
	<path class="st8" d="M374.4,310.6c8.5,0.1,17.1,0.2,25.6,0.2c16.6,0,58.3-0.1,59-0.1c0.3,0.1,1.5-0.7,1.8-0.6
		c-0.4,4-3.7,5.9-7.4,5.6c-3.9-0.3-7.9,0-11.9-0.1c-2.8-0.1-4.8,0.5-4.6,3.9c0.1,1.1-0.8,1.5-1.8,1.7c-38.9,0-77.7,0-116.6,0
		c-0.1-0.2-0.4-0.3-0.6-0.3c0.5-3.3-1.6-7.4,1-9.6c2.2-1.8,6.2-0.5,9.4-0.5C343.6,310.7,359,310.7,374.4,310.6z"/>
	<path class="st9" d="M92.8,427.5c-3.5,0-7.1-0.8-10.3,0.2c-6.8,2.1-13.8,1.3-20.7,1.8c-2-1.7-5.6-1.9-5.1-5.8
		c0.1-1.1,0.3-2.3,0.4-3.4c2,0.4,2-0.3,3.1,0.2c5.6,2.5,11.6,2.3,17.6,1.5c4.2-0.5,7.9-3.2,8.1-6.3c0.6-8.1-0.5-16-2.5-23.8
		c-0.1-2.1,0-4.2-0.3-6.2c-0.7-4.6,0.2-9.7-3.9-13.3l-0.2-0.3l-0.4,0c-0.1-0.1-0.3-0.2-0.4-0.3c0.8-5.6,2.5-10.8,4.6-16
		c0.7,0,1.5,0.1,2.2,0.1c5.4,4,7.4,10.1,9.5,15.9c4.4,12.2,8,24.7,12.9,36.7c0.4,0.9,0.4,1.8,0.2,2.7c-2.3,2.2-3.3,5.1-4.4,8
		c-1.1,1.7-1.7,0.8-2.6-0.3c-2.2-3-3.6-6.5-6.5-9.5c0,4.6-0.1,8.8,0,12.9C94.3,424,94.3,426,92.8,427.5z"/>
	<path class="st3" d="M319.3,473.2c1.4-1.3,14.3-0.7,15.9-0.7c31.7,0,63.5,0,95.2,0c2.5,0,5.2,0.7,6.3-2.8c0.5-1.6,3-0.3,3.9-1.9
		c3.7,0.3,7.4,0,11.1,0c10.2-0.1,20.3,0.2,30.5,0.1c17.4-0.1,34.8-0.1,52.3,0c4.3,0,8.7,0.3,13,0.2c4-0.1,8.1,0.9,12.2,0.7
		c0,2.1,0,4.3,0,6.4c-37.1,0-74.2,0-111.3,0c0,0.6,0,1.2,0,1.9c37.1,0,74.2,0,111.3,0c0,0.3,0,0.6-0.1,0.9c-41.2,0-82.3,0-123.5,0
		c-0.7-4.5-0.7-4.5-5.5-4.5c-31.6,0-63.3,0-94.9,0C334,473.4,321.1,473.3,319.3,473.2z"/>
	<path class="st9" d="M239.5,419.2c0,2.6,1.5,6-3.1,6.3c0-5.5,1-11.2-0.1-16.4c-1.6-7.1-1.5-14.1-1.5-21.1c0-1.8-1.1-2.8-2-3.9
		c-1.6-2.3-4.4-3.4-5.5-6.4c-0.6-1.7-3.8-1.3-5.9-1.5c-4.7-0.4-4.8-0.4-5-5.1c-0.1-2,0.6-4.4-1.8-5.7c2.3-0.3,4.4,0.8,6.4,1
		c6.2,0.8,12.6,2,18.7-0.8c0.7-0.3,1.5-0.3,2.2-0.5c6.5,10.4,15.7,17.7,27,22.3c1,0.4,1.9,1,2.8,1.5c-0.1,3.7,2.3,7,1.6,10.8
		c-14.1,2-25.4-2.6-34.1-15.2c-0.5,2.8-0.5,4.6-0.6,6.8C238.3,400.7,240.1,409.9,239.5,419.2z"/>
	<path class="st9" d="M213.1,365.4c-0.1,2.1-0.3,4.2-0.1,6.3c0.4,3.5-0.9,5.1-4.4,4.6c-0.3-1.2-0.4-2.9-2-1c-2.8,3.3-6,6.4-8.3,10.1
		l-0.1,0.1c-2.2,2.1-4.4,4.2-5.8,7c-1.8,2.1-3.7,4-5.3,6.2c-1.2,1.6-2.3,1.9-3.6,0.4c-1.4-2.3-3-4.6-4.9-6.5c-0.3-1-0.7-2-1.8-2.5
		c0.1-0.7,0.1-1.3,0.1-2c3.5-3.6,7.9-6.3,10.4-10.8c0.3-0.2,0.6-0.5,0.9-0.7c0.1,0.2,0.1,0.3,0.2,0.5c0.1-0.3,0.1-0.5,0.2-0.8
		c4.5-3.2,9-6.4,13.5-9.6c0.8-0.5,2.3-0.9,0.7-2.2C206.1,364.7,209.6,365.1,213.1,365.4z"/>
	<path class="st10" d="M559.7,468.8c-4.1,0.2-8.2-0.8-12.2-0.7c-4.4,0.1-8.7-0.1-13-0.2c-17.4-0.1-34.8-0.1-52.3,0
		c-10.2,0.1-37.9,0.3-41.6-0.1c0-1.5,0-3.1,0-4.6c9.8,0,19.6,0,29.4,0c1.2,1.5,2.9,0.9,4.3,0.9c21.7,0,43.5,0,65.2,0
		c1.3,0,2.8,0.5,3.8-0.9c5.5,0,11,0.1,16.5,0.1C559.7,465.1,559.7,466.9,559.7,468.8z"/>
	<path class="st8" d="M189.5,480.7c0.4,5.9,0.9,11.9-0.7,17.7c-0.4,1.6-0.9,3.3-1.8,4.6c-2.3,3.7-5,3.8-7.3,0.2
		c-4.8-7.6-6.9-16.2-7.3-25.1c-0.1-2.4,1-4,3.1-5.1c3.2-1.7,6.5-2.8,10.1-1.7c0.7,1.9,1.4,3.7,2.2,5.6
		C188,478.5,187.1,480.3,189.5,480.7z"/>
	<path class="st11" d="M84.2,348.6c1-2,1.1-4.1,0.9-6.2c-0.1-1.4-0.3-2.3-1.9-3.1c-4.6-2.5-5.4-12.7-1.5-16.1
		c2.1-1.8,4.4-1.1,5.8,1.8c1.2,2.5,1.2,5.3,1.4,8c2.2,0.2,2.3-1.4,2.5-2.7c0.6-4.5,0.2-8.8-2.4-12.7c-0.8-1.2-2-2.3-1.9-4.3
		c3.5,0,7-0.1,10.3-1.4c1.8,0.8,1.4,2.5,1.5,4c0.1,3.6,0.2,7.3,0.3,10.9c-0.3,5.8-0.6,11.5-3.9,16.6
		C93.5,346.1,85.4,350.5,84.2,348.6z"/>
	<path class="st9" d="M44,409.2c0.9-10.2,1.7-20.4,3.7-30.4c2.1-10.1,6.3-19.4,14.5-26.4c0.6,0.1,1.2,0.1,1.9,0.1
		c-1.9,5.4-2.1,10.9-1.7,16.5c-4.4,1.1-7.4,3.7-9,7.9c-2.2,5.4-2.8,11.1-1.9,16.9c-0.6,5,0.6,10-0.9,14.9
		C48.3,408.9,46.2,409.5,44,409.2z"/>
	<path class="st11" d="M103.3,418.9c1.1-2.9,2.2-5.7,4.4-8c2.2-0.2,4.3-0.7,6.7-0.1c3.8,1.1,6.2,3.1,6.4,6.6
		c0.2,3.6-1.9,7.2-5.1,8.4c-3.1,1.2-6.5,0.1-8.8-3C105.9,421.4,105,419.9,103.3,418.9z"/>
	<path class="st10" d="M559.8,477c-37.1,0-74.2,0-111.3,0c0-0.6,0-1.2,0-1.9c37.1,0,74.2,0,111.3,0
		C559.8,475.8,559.8,476.4,559.8,477z"/>
	<path class="st11" d="M273.2,399.8c0.7-3.8-1.7-7.1-1.6-10.8c2.2-0.1,2.4-2.6,4.1-3.3c3.1-1.3,7.1-0.1,9,3
		c2.7,4.2,2.1,10.3-1.1,12.6c-2.1,1.5-4.1,1.6-6.4,0.5C275.9,401.2,274.9,399.8,273.2,399.8z"/>
	<path class="st11" d="M179.2,391.7c1.9,1.9,2.8,5.1,4.2,7.4c-1.6,1.3-0.5,3.2-1,4.7c-0.6,2-4.2,6.2-4.2,2.5
		c-0.1-5.4-4.5-0.2-5.3,1.5c-2.5,1.1-3.6,2.5-5.9,0c-1.7-1.9-0.8-5.4,0.5-8.2c1.9-3.9,6-4.3,8.7-6.8
		C177,392.6,178.5,391.7,179.2,391.7z"/>
	<path class="st11" d="M45.2,409.3c2.2,0.3,3.1-0.4,5.2-0.7c-0.3,2.2,0.2,4.2,0.9,6.2c0.3,3.5,4.5,2.9,5.8,5.4
		c-0.1,1.1-0.3,2.3-0.4,3.4c-7.2,2.4-11.5,0.2-11.9-6.1c-0.1-1.6-0.2-3.4,0.4-4.9C45.8,411,45.7,410.4,45.2,409.3z"/>
	<path class="st10" d="M436.2,477.9c41.2,0,82.3,0,123.5,0c0.1,0.3,0.1,0.6,0,0.9c-39.5,0-78.9,0-118.4-0.1
		C439.7,478.8,437.7,479.7,436.2,477.9z"/>
	<path class="st6" d="M201.9,397.1c0.9,2.5,1.7,5-0.1,7.5C201.8,402.1,201.8,399.6,201.9,397.1z"/>
	<path class="st12" d="M201.9,392.8c0,0.6,0,1.1-0.1,1.7"/>
	<path class="st12" d="M188.5,376.2c-0.1,0.3-0.1,0.5-0.2,0.8c-0.1-0.2-0.1-0.3-0.2-0.5C188.2,376.3,188.3,376.2,188.5,376.2z"/>
	<path class="st8" d="M224.9,500.8c3.5,0.1,7-0.1,10.5,0.2c2.6,0.2,5.4,1.1,6.4,3.6c1.1,2.8-0.1,5.3-2.1,7.5
		c-5.6,6.4-12.9,9.5-21.1,10.6c-4.4,0.6-7.5-2.5-7.6-7c-0.1-4.1-0.6-8.2,2-11.9c0.5-0.7,1.1-1.1,1.8-1.2c0,1.2,0,2.4,0.1,3.6
		c0.1,1.3,0.7,2.7,2.1,2.6c4.6-0.3,9.4,0,13.8-2c1-0.5,1.8-1.3,1.5-2.5c-0.3-1.3-1.2-2.2-2.6-2.2c-1.2-0.1-2.4,0.3-3.6,0.3
		C224.8,502.5,224.4,501.9,224.9,500.8z"/>
	<path class="st8" d="M100,502.5c-0.1-0.6-0.1-1.2-0.2-1.8c-0.2-6.4,16.1-18.9,19.3-21.6c0.8,0,1.5-0.1,2.3-0.1
		c5.4-0.1,7.2,3.7,5.8,7.8c-1.3,3.9-3.9,7.2-7.1,10c-3.8,3.3-8,5.6-12.9,7C104.3,504.7,102.3,503.3,100,502.5z"/>
	<path class="st8" d="M43.1,487.2c3.2,7.2,8.9,9.3,16.2,8c0,0,6.4-1.1,6.6-2.6c5.4,2.9,5.9,7.5,1.1,10.8c-7.6,5.2-20.9,5-27-0.2
		c-2.5-2.1-3.1-4.3-1.5-7.2C40.1,493.2,41.5,490.2,43.1,487.2z"/>
	<path class="st13" d="M224.9,500.8c-0.5,1.2-0.1,1.7,1.1,1.7c1.2-0.1,2.4-0.4,3.6-0.3c1.3,0.1,2.2,0.9,2.6,2.2
		c0.3,1.3-0.5,2.1-1.5,2.5c-4.4,2-9.2,1.7-13.8,2c-1.3,0.1-2-1.2-2.1-2.6c-0.1-1.2-0.1-2.4-0.1-3.6c1.7-7.8,2-15.9,3.5-23.8
		c0.2-0.9,0.5-1.7,0.7-2.6c3.2-0.9,6.2,0.8,9.4,0.7c0.1,1.3,0.1,2.5,0.1,3.7C227.3,487.4,226.1,494.1,224.9,500.8z"/>
	<path class="st14" d="M285.1,484.3c4.7-2.9,2.7-6.8,2-10.8c3.2,1.4,3.7,3.8,4.4,6c0.7,2.4,1.8,2.4,3.7,1.4c1.6-0.8,3-2.9,5.8-1.2
		c-2.6,2.1-5,4.1-5.8,7.4c-0.2,1-1.3,1.3-2.1,1.6c-2.2,0.7-4.6,0.1-6.8,0.3c-2.8,0.4-3.5-1.9-4.8-3.5c-1.8-2.1-2.9-2.8-6.8-4.4
		C279.5,478.4,282.1,482,285.1,484.3z"/>
	<path class="st14" d="M141.4,477.5c3.3-0.2,5.8,1,8.3,2.7c2.7,1.8,4.1,1.1,4.3-2.2c0.1-0.9,0-1.8,0-2.7c0-0.7,0.1-1.5,0.3-2.5
		c3.7,1,2.5,4.6,3.9,6.7c3.1,0.3,4.7-3.7,8.6-2.9c-2.4,3-5.9,4.8-6.2,8.7c-0.1,0.8-1.4,1-2.4,1c-1.1,0-2.2-0.2-3.2,0.1
		c-3.8,1.1-6.6,0.6-7.9-3.7c-0.4-1.4-1.7-2-3-2.7C143.3,479.4,141.9,479.2,141.4,477.5z"/>
	<path class="st3" d="M317.5,468.7c0.1-0.2,0.3-0.3,0.6-0.4c-0.1,3.2,1.3,4.6,4.7,4.2c1.8-0.2,4-0.8,5.7,0.7
		c-2.1,0.1-4.2,0.1-6.3,0.1C317.7,473.4,317.7,473.3,317.5,468.7z"/>
	<path class="st15" d="M97.1,473.4c1.9,4.8,0.4,9.8,0.9,14.6C96.2,483.2,97.5,478.2,97.1,473.4z"/>
	<path class="st9" d="M318.5,458.8c-0.1-21.6-0.1-43.3-0.1-64.9c0-24.2,0.1-48.4,0.1-72.7c38.9,0,79,0,117.8,0c1,3.4,0.7,5.1,0.6,8
		c-0.1,4.1,0.2,8.2-0.1,12.3c-0.2,3,1.1,3.8,3.7,3.6c0.8,2.2,1,4.4,1,6.7c0,33.9,0,67.8,0,101.7c0,5.1,0,5.2-5.3,5.2
		c-37,0-74,0-111,0c-1.7,0-3.4,0.1-5,0.1C319.6,458.8,319,458.8,318.5,458.8z M368,337.5c-1.5,1.1-0.9,2.6-0.6,4
		c2.3,1.9,1.2,4.6,1.7,7c0,9.2-0.4,18.5,0.2,27.7c0,1.2,0,2.4,0,3.6c-0.6,0.5-1.1,1.1-1.7,1.7c-0.7,1.3-0.6,2.7-0.2,4
		c-0.1,0.2-0.1,0.3-0.1,0.5c0.3,1.2,1.3,1.1,2.2,1.1c7.1,0,14.1,0,21.2,0c0.8,0,1.5-0.1,1.9-0.9c2.8-0.7,2.2-3.3,1.4-4.4
		c-1.7-2.3-1.3-4.6-1.4-6.9c-0.1-5.6-0.3-11.3,0.1-16.9c0.3-5.8-1.5-11.8,1.6-17.3c0.4-0.8,0.3-2.1-0.5-3c-1.1-1.5-2.8-0.9-4.2-0.9
		c-4.7-0.1-9.4-0.1-14,0C373,336.9,370.4,336,368,337.5z M432.2,382.7c-0.1-0.2-0.3-0.5-0.5-0.6c0.2-0.3,0.3-0.5,0.5-0.8
		c-0.9-4.3-0.9-8.7-0.8-13c0-6.6,0.1-13.3,0-19.9c0-1.9,0.1-3.6,0.9-5.3c-0.2-6-0.2-6-6-6.1c-5.6,0-11.3,0-16.9,0
		c-5,0-5.5,1-3.5,6.1c-0.2,0.2-0.6,0.5-0.6,0.7c1,10,0.1,20,0.5,30c0.1,2.4-1.6,4.7-0.1,7.1c-0.3,0.4-0.6,0.7-0.9,1.1
		c-1.5,1.1-1.3,2.3,0,3.4c0.1,0.3,0.3,0.6,0.4,0.9c-0.1,0.2-0.3,0.4-0.4,0.6c0,0,0.2,0.3,0.3,0.3c8.3,0,16.5,0.1,24.8,0
		C433.5,387,433.6,386.7,432.2,382.7z M352.3,380.9c1.5-2.3-0.1-4.7-0.1-7c0.2-8.8,0.1-17.5,0.1-26.3c0-1.4,0.7-3.1-0.8-4.2
		c2.7-5,1.9-6.4-3.7-6.4c-5.8,0-11.5-0.1-17.3,0c-1.5,0-3.6-0.9-4.5,1.1c-0.9,1.9-0.1,3.8,1.3,5.3c-0.7,0-0.9,0.3-1.1,1
		c-0.8,3.7,0.4,7.4,0.4,11.1c-0.1,8.5,0,17,0,25.4c-1.4,4.8-1,5.4,3.8,5.4c5.9,0.1,11.9,0.1,17.8,0
		C353.6,386.2,353.9,385.8,352.3,380.9z"/>
	<path class="st16" d="M543.3,463.2c-1,1.4-2.5,0.9-3.8,0.9c-21.7,0-43.5,0-65.2,0c-1.4,0-3.1,0.6-4.3-0.9c0-24.1,0-48.3-0.1-72.4
		c0-2.5,1.2-5.4-3.4-5.9c-1.9-0.2-1.9-3.5-1.8-5.6c0.2-1.9,2.1-1.3,3.4-1.3c25.4,0,50.8,0,76.2,0c1.4,0,3.5-0.6,3.5,1.8
		c0.1,1.9,1.1,4.8-2,5.3c-2.7,0.4-2.6,2-2.6,3.9c0,8.1,0,16.2,0,24.3C543.3,429.9,543.3,446.5,543.3,463.2z M537,423.8
		c0-11.6-0.1-23.2,0.1-34.8c0-3.3-0.9-4.7-4.4-4.7c-17.3,0.1-34.6,0.1-51.8,0c-3.4,0-4.6,1.1-4.6,4.5c0.1,23.5,0.1,47,0,70.5
		c0,3.1,1,3.9,4,3.9c17.6-0.1,35.2-0.1,52.8,0c3.3,0,4.1-1.1,4.1-4.2C536.9,447.3,537,435.6,537,423.8z"/>
	<path class="st9" d="M460.7,305.1c1.6-2.9,4.1-5.4,6.4-7.1c3.1-2.3,5.8-4.8,8.4-7.4c7.7-7.5,16.4-13.8,23.8-21.6
		c2.6-2.7,6.7-4.8,9.1-7.9c3.9,1.7,6.1,4.3,8.8,7.4c3.5,3.9,7.5,7.1,11.2,10.6c5.9,5.6,11.8,11.5,18.3,16.5
		c3.6,2.7,5.2,7.6,10.2,8.8c1.9,0.5,3,8.4,1.8,10.2c-0.5,0.7-1.2,0.9-2,0.9c-1.2,0-2.5,0.1-3.7,0.1c-29.1,0-58.1,0-87.1,0
		c-5.4,0-5.4,0-5.4-5.5C460.7,308.5,460.7,306.8,460.7,305.1z"/>
	<path class="st12" d="M460.7,305.1c0,1.7,0,3.3,0,5c-0.3,0.1-0.5,0.1-0.8,0.1c-0.3-1.3,0.4-3-1.2-4
		C459.1,305.4,459.9,305.2,460.7,305.1z"/>
	<path class="st13" d="M245.5,340.5c0.1,0.6-0.5,1-0.9,1.1c-0.4,0-1-0.4-0.9-1.2c0.1-0.6,0.4-0.9,0.8-0.9
		C244.9,339.3,245.5,339.6,245.5,340.5z"/>
	<path class="st8" d="M59.3,495.2c0.2-0.1,0.4-0.2,0.6-0.4c-0.1,0.2-0.2,0.4-0.3,0.6C59.6,495.5,59.3,495.2,59.3,495.2z"/>
	<path class="st11" d="M69.5,352.5c0-0.9,0-1.8-0.1-2.7c4-0.1,8-0.1,12-0.1c-0.1,1.4,0.1,2.8-0.5,4.1c-0.7,0-1.4-0.1-2.1-0.1
		C75.9,352.4,72.7,352.5,69.5,352.5z"/>
	<path class="st17" d="M51.4,393.7c-0.9-5.8-0.3-11.4,1.9-16.9c1.7-4.2,4.7-6.8,9-7.9c1.2,0,2.3-0.1,3.5-0.1c2.5,0.5,5,0.9,7.5,1.4
		c1.7,0.5,3.5,0.5,5,1.5c0.1,0.1,0.3,0.2,0.4,0.3c0.1,0.2,0.3,0.3,0.5,0.3c4.1,3.6,3.2,8.7,3.9,13.3c0.3,2.1,0.2,4.2,0.3,6.2
		c-0.2,1.9-1.9,3.4-1.7,5.4c-2.7,1.5-5.3,3-7.9,4.4c-6.8,3.8-13.5,2.7-19-2.9C53.3,397.3,53.4,394.8,51.4,393.7z"/>
	<path class="st7" d="M81.8,397.3c-0.2-2,1.5-3.5,1.7-5.4c2,7.8,3.1,15.7,2.5,23.8c-0.3,3.1-3.9,5.8-8.1,6.3c-6,0.7-11.9,1-17.6-1.5
		c-1.2-0.5-0.6,0.7-3.1-0.2c-1.3-2.5-5.4-1.9-5.8-5.4c2.1,0.2,3.6,1.6,5.4,2.3c5,1.7,10,3.5,15.4,3.2c8.4-0.4,11.7-4.4,11.3-12.7
		C83.3,404.1,84.4,400.2,81.8,397.3z"/>
	<path class="st18" d="M78.3,371.7c-1.5-1-3.3-1.1-5-1.5c0.4-0.2,1.1-0.3,1.2-0.6c1.5-5.3,4.6-10.2,4.4-15.9c0.7,0,1.4,0.1,2.1,0.1
		c1.3,0.9,1.3,1.3,2,1.9C80.8,360.9,79.1,366.1,78.3,371.7z"/>
	<path class="st19" d="M79.3,372.4c-0.2-0.1-0.4-0.1-0.5-0.3l0.4,0L79.3,372.4z"/>
	<path class="st18" d="M81.8,397.3c2.6,3,1.5,6.8,1.7,10.3c0.4,8.3-2.9,12.3-11.3,12.7c-5.4,0.3-10.4-1.5-15.4-3.2
		c-1.9-0.6-3.4-2.1-5.4-2.3c-0.7-2-1.2-4.1-0.9-6.2c1.5-4.9,0.3-10,0.9-14.9c2,1.2,1.9,3.6,3.5,5.2c5.5,5.6,12.2,6.7,19,2.9
		C76.5,400.2,79.2,398.8,81.8,397.3z"/>
	<path class="st18" d="M65.9,368.8c-1.2,0-2.3,0.1-3.5,0.1c-0.3-5.6-0.2-11.1,1.7-16.5c0.7-0.2,1.4-0.1,1.9,0.5
		C65.9,358.3,65.9,363.5,65.9,368.8z"/>
	<path class="st9" d="M65.9,368.8c0-5.2,0-10.5,0-15.8c1.3,0.2,2.5,0.2,3.6-0.5c3.2,0,6.4-0.1,9.4,1.2c0.1,5.8-2.9,10.6-4.4,15.9
		c-0.1,0.3-0.8,0.4-1.2,0.6C70.8,369.7,68.3,369.2,65.9,368.8z"/>
	<path class="st13" d="M369.3,379.8c0-1.2,0-2.4,0-3.6c1.2-9.2,0.4-18.5,0.4-27.7c0.1-1.7,0.1-3.4,0.2-5.2c6.8,0,13.6,0,21.3,0
		c-7,12.9-13.6,25-21.4,36.5C369.6,379.7,369.5,379.7,369.3,379.8z"/>
	<path class="st20" d="M405.8,343c-2.1-5.1-1.5-6.1,3.5-6.1c5.6,0,11.3,0,16.9,0c5.8,0,5.8,0,6,6.1c-0.6,0.1-1.1,0.1-1.7,0.2
		c-0.3-0.1-0.7-0.3-1-0.4c-7.3-1.1-14.6-0.9-22-0.1c-0.3,0.1-0.7,0.3-1,0.4C406.3,343,406,343,405.8,343z"/>
	<path class="st20" d="M327.4,343.3c-1.4-1.5-2.2-3.4-1.3-5.3c0.9-1.9,3-1,4.5-1.1c5.8-0.1,11.5,0,17.3,0c5.6,0,6.4,1.4,3.7,6.4
		h-0.3c-0.3-0.1-0.5-0.1-0.8,0c-0.2-0.2-0.5-0.5-0.7-0.6c-6.5-0.1-13.1-0.1-19.6-0.3c-1.8,0-1.6,1.5-2.3,2.3
		C327.7,344.3,327.6,343.8,327.4,343.3z"/>
	<path class="st21" d="M369.3,379.8c0.1-0.1,0.3-0.1,0.5,0c0.3,0.3,0.7,0.8,1,0.8c6.3,0.1,12.5,0.1,18.8,0.1c2.2,0,2.4-1.4,2.4-3.1
		c0-10.7,0-21.4,0.1-32c0-2.3-0.8-3.3-3.2-3.2c-3.6,0.2-7.3-0.1-11,0.1c-2.7,0.1-5.4-1-7.9,0.8c-0.1,1.7-0.1,3.4-0.2,5.2
		c-0.2,0.1-0.4,0.1-0.7,0c-0.5-2.3,0.6-5.1-1.7-7c7.3,0,14.6-0.2,21.9-0.1c2.8,0.1,4-0.9,3.6-3.6c0.3,0,0.6-0.1,0.9-0.1
		c0.9,0.9,1,2.2,0.5,3c-3.1,5.6-1.3,11.6-1.6,17.3c-0.3,5.6-0.1,11.3-0.1,16.9c0,2.3-0.4,4.7,1.4,6.9c0.8,1,1.4,3.6-1.4,4.4
		c-8.4-0.1-16.9-0.1-25.3-0.2c0-0.2,0-0.3,0.1-0.5c1.5,0,3.1-0.1,4.6-0.1c6.1,0,12.2,0,18.4,0c1.3,0,2.5-0.3,2.4-2
		c-0.1-1.5-1.1-1.7-2.2-1.7c-1.1,0-2.1,0-3.2,0c-6.6-0.1-13.1-0.1-19.7-0.2C368.2,380.9,368.7,380.4,369.3,379.8z"/>
	<path class="st20" d="M352.3,380.9c1.5,5,1.3,5.4-4.1,5.4c-5.9,0-11.9,0-17.8,0c-4.8-0.1-5.2-0.7-3.8-5.4c0.4-0.4,0.9-0.8,1.3-1.1
		c0.3,0.3,0.6,0.7,0.9,1c0.1,0.5,0.3,0.8,0.9,0.8c6.2,0,12.3-0.1,18.5,0.1c1.5,0,2.2-0.7,2.9-1.7C351.6,380.1,352,380.5,352.3,380.9
		z"/>
	<path class="st20" d="M405.2,386.2c-0.1-0.3-0.3-0.6-0.4-0.9c0-1.1,0-2.3,0-3.4c0.3-0.4,0.6-0.7,0.9-1.1h0.4l0.4-0.1
		c1.5,1.6,3.5,0.9,5.2,0.9c6.7,0.3,13.4-0.5,20,0.5c0.2,0.2,0.4,0.4,0.5,0.6c-0.6,2.7-2.2,3.7-5.1,3.6
		C419.8,386,412.5,386.2,405.2,386.2z"/>
	<path class="st22" d="M431.7,382c-6.7-0.9-13.4-0.1-20-0.5c-1.7-0.1-3.7,0.7-5.2-0.9c0-12.5,0-25,0-37.6c0.3-0.1,0.7-0.3,1-0.4
		c0,0.2-0.1,0.3-0.1,0.5c0,11.1-0.1,22.2,0,33.4c0,1.1-0.4,2.5,1,3.3c0.9,0.3,1.7,0.8,2.6,0.9c5.3,0.5,10.6-0.5,15.9,0
		c2.3,0.2,2.7-1.5,2.7-3.4c-0.1-10.8-0.1-21.6-0.2-32.4c0-0.5,0-1,0-1.5c0.1-0.2,0.1-0.3,0.1-0.5c0.3,0.1,0.7,0.3,1,0.4
		c-0.1,11.7-0.1,23.4-0.3,35.1c0,1.5,0.1,2.8,1.9,3C432,381.5,431.8,381.8,431.7,382z"/>
	<path class="st20" d="M367.6,381.5c6.6,0.1,13.1,0.1,19.7,0.2c1.1,0,2.1,0,3.2,0c1.2,0,2.1,0.2,2.2,1.7c0.1,1.7-1.1,2-2.4,2
		c-6.1,0-12.2,0-18.4,0c-1.5,0-3.1,0-4.6,0.1C367,384.1,366.9,382.8,367.6,381.5z"/>
	<path class="st20" d="M392.8,337.8c0.4,2.8-0.7,3.7-3.6,3.6c-7.3-0.1-14.6,0-21.9,0.1c-0.3-1.4-0.8-2.9,0.6-4
		C376.3,337.6,384.6,337.7,392.8,337.8z"/>
	<path class="st23" d="M328,379.6c-0.4,0.4-0.9,0.8-1.3,1.1c0-8.5-0.1-17,0-25.4c0-3.7-1.2-7.3-0.4-11.1c0.2-0.8,0.4-1,1.1-1
		c0.2,0.5,0.3,1,0.5,1.5C327.9,356.4,327.9,368,328,379.6z"/>
	<path class="st23" d="M432.2,381.2c-1.9-0.2-2-1.5-1.9-3c0.1-11.7,0.2-23.4,0.3-35.1c0.6-0.1,1.1-0.1,1.7-0.2
		c-0.7,1.7-0.9,3.5-0.9,5.3c0.1,6.6,0.1,13.3,0,19.9C431.3,372.6,431.3,376.9,432.2,381.2z"/>
	<path class="st23" d="M406.5,343.1c0,12.5,0,25,0,37.6l-0.4,0.1h-0.4c-1.5-2.4,0.2-4.7,0.1-7.1c-0.4-10,0.4-20-0.5-30
		c0-0.2,0.4-0.4,0.6-0.7C406,343,406.3,343,406.5,343.1z"/>
	<path class="st23" d="M352.3,380.9c-0.4-0.3-0.8-0.7-1.1-1.1c0-12.2,0-24.4,0.1-36.5h0.3c1.4,1.2,0.8,2.8,0.8,4.2
		c0.1,8.8,0.2,17.5-0.1,26.3C352.2,376.2,353.9,378.5,352.3,380.9z"/>
	<path class="st19" d="M405.2,386.2c7.3,0,14.6-0.1,21.9,0.1c3,0.1,4.5-0.9,5.1-3.6c1.4,4,1.3,4.4-2.4,4.4c-8.3,0.1-16.5,0-24.8,0
		c-0.1,0-0.3-0.2-0.3-0.3C404.9,386.6,405,386.4,405.2,386.2z"/>
	<path class="st24" d="M369.1,348.5c0.2,0.1,0.4,0,0.7,0c0,9.3,0.8,18.5-0.4,27.7C368.6,366.9,369.1,357.7,369.1,348.5z"/>
	<path class="st19" d="M392.8,337.8c-8.3-0.1-16.5-0.2-24.8-0.3c2.4-1.5,5-0.6,7.5-0.7c4.7-0.2,9.4-0.1,14,0c1.4,0,3.1-0.6,4.2,0.9
		C393.4,337.7,393.1,337.7,392.8,337.8z"/>
	<path class="st19" d="M367.3,386c8.4,0.1,16.9,0.1,25.3,0.2c-0.4,0.8-1.1,0.9-1.9,0.9c-7.1,0-14.1,0-21.2,0
		C368.6,387.1,367.6,387.2,367.3,386z"/>
	<path class="st19" d="M404.8,381.8c0,1.1,0,2.3,0,3.4C403.5,384.1,403.3,383,404.8,381.8z"/>
	<path class="st20" d="M537,423.8c0,11.7-0.1,23.5,0.1,35.3c0,3.1-0.8,4.2-4.1,4.2c-17.6-0.1-35.2-0.1-52.8,0c-3,0-4-0.8-4-3.9
		c0.1-23.5,0.1-47,0-70.5c0-3.4,1.2-4.5,4.6-4.5c17.3,0.1,34.6,0.1,51.8,0c3.5,0,4.4,1.4,4.4,4.7C536.9,400.6,537,412.2,537,423.8z
		 M513.1,417c0,1.5,0,3,0,4.5c0,1.5,0.6,2.2,2.1,2.3c1.4,0,2.4-0.3,2.4-1.9c0-3,0-6,0-9c0-1.3-0.9-1.7-2.1-1.8
		c-1.4-0.1-2.4,0.3-2.4,1.9C513.1,414.3,513.1,415.7,513.1,417z M501.2,417.7L501.2,417.7c0-1.7,0-3.3,0-5c-0.1-1.4-1-1.7-2.2-1.7
		c-1.1,0-2.3,0.2-2.3,1.6c-0.1,3-0.1,6,0,9.1c0.1,1.4,1.1,2.1,2.5,2.1c1.7,0,2-1,2-2.4C501.1,420.2,501.2,418.9,501.2,417.7z"/>
	<path class="st24" d="M369.9,343.3c2.5-1.8,5.3-0.6,7.9-0.8c3.6-0.2,7.3,0.1,11-0.1c2.5-0.1,3.2,0.9,3.2,3.2
		c-0.1,10.7-0.1,21.4-0.1,32c0,1.7-0.2,3.1-2.4,3.1c-6.3-0.1-12.5-0.1-18.8-0.1c-0.3,0-0.7-0.5-1-0.8c7.8-11.5,14.4-23.6,21.4-36.5
		C383.5,343.3,376.7,343.3,369.9,343.3z"/>
	<path class="st21" d="M407.5,342.7c7.3-0.8,14.7-1,22,0.1c0,0.2-0.1,0.4-0.1,0.5c-7.3,0-14.6-0.1-21.9-0.1
		C407.5,343,407.5,342.8,407.5,342.7z"/>
	<path class="st13" d="M328,379.6c0-11.6-0.1-23.2-0.1-34.8c0.7-0.8,0.5-2.4,2.3-2.3c6.5,0.1,13.1,0.2,19.6,0.3
		c0.2,0,0.5,0.4,0.7,0.6c-1.2,2.4-2.3,4.8-3.6,7.1c-3.1,5.1-6.4,10.1-9.4,15.2c-2.9,4.9-5.7,10-8.6,15
		C328.6,380.3,328.3,379.9,328,379.6z"/>
	<path class="st24" d="M328.9,380.6c2.9-5,5.6-10.1,8.6-15c3.1-5.1,6.3-10.1,9.4-15.2c1.4-2.3,2.5-4.7,3.6-7.1
		c0.3-0.1,0.5-0.1,0.8,0c0,12.2,0,24.4-0.1,36.5c-0.7,1-1.5,1.7-2.9,1.7c-6.2-0.1-12.3,0-18.5-0.1
		C329.2,381.4,329,381.1,328.9,380.6z"/>
	<path class="st13" d="M407.5,343.2c7.3,0,14.6,0.1,21.9,0.1c0,0.5,0,1,0,1.5c-1,1.7-2.5,3-3.6,4.7c-4.6,7-8.3,14.4-12.5,21.6
		c-1.7,2.9-4.3,5.2-4.8,8.7c-1.4-0.8-1-2.1-1-3.3C407.4,365.4,407.4,354.3,407.5,343.2z"/>
	<path class="st24" d="M408.4,379.8c0.5-3.5,3.1-5.8,4.8-8.7c4.2-7.2,8-14.6,12.5-21.6c1.1-1.7,2.5-3,3.6-4.7
		c0.1,10.8,0.1,21.6,0.2,32.4c0,1.9-0.4,3.6-2.7,3.4c-5.3-0.5-10.6,0.5-15.9,0C410.1,380.6,409.3,380.1,408.4,379.8z"/>
	<path class="st16" d="M513.1,417c0-1.4,0-2.7,0-4.1c0-1.6,1-2,2.4-1.9c1.2,0,2.1,0.4,2.1,1.8c0,3,0,6,0,9c0,1.6-1,2-2.4,1.9
		c-1.5,0-2.2-0.8-2.1-2.3S513.1,418.5,513.1,417z"/>
	<path class="st16" d="M501.2,417.7c0,1.2,0,2.4,0,3.6c0,1.4-0.3,2.4-2,2.4c-1.4,0-2.5-0.7-2.5-2.1c-0.1-3-0.1-6,0-9.1
		c0-1.4,1.1-1.6,2.3-1.6c1.2,0,2.1,0.3,2.2,1.7C501.2,414.4,501.1,416.1,501.2,417.7C501.1,417.7,501.1,417.7,501.2,417.7z"/>
	<path class="st14" d="M285.1,527.4c4.7-2.9,2.7-6.8,2-10.8c3.2,1.4,3.7,3.8,4.4,6c0.7,2.4,1.8,2.4,3.7,1.4c1.6-0.8,3-2.9,5.8-1.2
		c-2.6,2.1-5,4.1-5.8,7.4c-0.2,1-1.3,1.3-2.1,1.6c-2.2,0.7-4.6,0.1-6.8,0.3c-2.8,0.4-3.5-1.9-4.8-3.5c-1.8-2.1-2.9-2.8-6.8-4.4
		C279.5,521.5,282.1,525.2,285.1,527.4z"/>
</g>
<rect x="325.7" y="341.7" class="st23" width="2.3" height="39"/>
<rect x="349.6" y="341.7" class="st23" width="2.3" height="39"/>
<rect x="367" y="341.7" class="st23" width="2.3" height="39"/>
<rect x="390.4" y="341.7" class="st23" width="2.3" height="39"/>
<rect x="404.9" y="341.7" class="st23" width="2.3" height="39"/>
<rect x="428.3" y="341.7" class="st23" width="2.3" height="39"/>
<rect x="323.8" y="335.7" class="st20" width="30" height="6"/>
<rect x="323.8" y="380.5" class="st20" width="30" height="6"/>
<rect x="365.2" y="380.5" class="st20" width="30" height="6"/>
<rect x="365.2" y="336" class="st20" width="30" height="6.3"/>
<rect x="403.1" y="336.3" class="st20" width="30" height="6"/>
<rect x="403.1" y="380.2" class="st20" width="30" height="6"/>
<path class="st25" d="M220.1,412.7l-7-0.2c-2.9-0.1-5.5-2-6.4-4.7l-2.4-7.2c-1-2.9,0.1-6.1,2.5-7.9l5.4-3.8c2.5-1.8,5.8-1.7,8.2,0.1
	l6,4.5c2.3,1.8,3.3,4.8,2.5,7.6l-2,6.7C226,410.8,223.2,412.8,220.1,412.7z"/>
<ellipse class="st18" cx="65.5" cy="393.1" rx="7.2" ry="3.7"/>
<rect x="210.3" y="396.8" class="st6" width="10.6" height="7.2"/>
<radialGradient id="SVGID_1_" cx="481.1872" cy="525.0679" r="29.398" gradientTransform="matrix(1 0 0 -1 0 602)" gradientUnits="userSpaceOnUse">
	<stop  offset="0.6489" style="stop-color:#FFEF26"/>
	<stop  offset="1" style="stop-color:#E98A32"/>
</radialGradient>
<circle class="st26" cx="481.2" cy="76.9" r="29.4"/>
<path class="st11" d="M207.1,454.4l-3.7,10.5c0,0-0.7,2-3.1,4.4c0,0-10.1,7.2-10.9,9l-0.4,1.9c0,0-2.6,0-1.6-3.7l-2.2-5.6l9.6-7.4
	c0,0,1.7-0.7,2.7-3.2c1-2.5,0.9-11,0.9-11L207.1,454.4z"/>
<path class="st27" d="M200.4,469.3c0,0-10.1,7.2-10.9,9l-0.4,1.9c0,0-2.6,0-1.6-3.7l-2.2-5.6l9.6-7.4
	C194.8,463.5,202.7,466.9,200.4,469.3z"/>
<path class="st11" d="M220.5,458c0,0,0.5,12.2-1.5,18.4l9.4,0.8c0,0,5.4-18.4,4.5-20.8C232.9,456.5,221.9,457.3,220.5,458z"/>
<g>
	<path class="st28" d="M482.3,340.7c-5.7,0-10-4.4-10-10v-0.1c0-5.5,4.2-10.1,10.2-10.1c3.7,0,5.9,1.2,7.7,3l-2.7,3.1
		c-1.5-1.4-3-2.2-5-2.2c-3.3,0-5.6,2.7-5.6,6.1v0.1c0,3.3,2.3,6.1,5.6,6.1c2.2,0,3.6-0.9,5.1-2.3l2.7,2.8
		C488.2,339.3,486,340.7,482.3,340.7z"/>
	<path class="st28" d="M508.2,340.3l-1.8-4.4h-8.2l-1.8,4.4H492l8.3-19.6h3.9l8.3,19.6H508.2z M502.3,325.9l-2.6,6.3h5.2
		L502.3,325.9z"/>
	<path class="st28" d="M523.5,340.7c-5.7,0-10-4.4-10-10v-0.1c0-5.5,4.2-10.1,10.2-10.1c3.7,0,5.9,1.2,7.7,3l-2.7,3.1
		c-1.5-1.4-3-2.2-5-2.2c-3.3,0-5.6,2.7-5.6,6.1v0.1c0,3.3,2.3,6.1,5.6,6.1c2.2,0,3.6-0.9,5.1-2.3l2.7,2.8
		C529.5,339.3,527.3,340.7,523.5,340.7z"/>
	<path class="st28" d="M535.1,340.3v-19.5h4.3v19.5H535.1z"/>
</g>
<path class="st15" d="M441.4,478.9c-1.7,0-3.6,0.9-5.1-0.9c-0.7-4.5-0.7-4.5-5.5-4.5c-31.6,0-63.3,0-94.9,0c-1.9,0-3.7-0.1-5.5-0.1
	c-0.6,0-1.3,0-1.9,0c-2.1,0.1-4.2,0.1-6.3,0.1c-4.5,0-4.5-0.1-4.7-4.7c-13.6-0.7-27.2-0.1-40.8-0.3c-1.6,0-3.4,0.5-4.9-0.5
	c-0.7,0-1.5,0-2.3,0c-1.1,0.7-2.1,0.8-3.2,0c-1.1-0.1-2.1-0.1-3.1-0.2c-1.9,0-0.9-1.1-0.5-1.7c0.9-1.6,0.1-2-1.3-2.2l-0.4,0.2
	c-1.1,2.3-2.3,3.1-3.4,0c-0.5-1.4-0.7-2.9-0.5-4.4c-0.5-1.1-1-2.2-2.6-2.5c-0.2,2.7,0.9,5.3-0.4,8c-1,2-1.7,2.3-3.1,0.9
	c-1.9-1.9-3.8-3.4-6.6-2.4c0.3,1.9,2.5,2.1,3.3,4.2c-5.6,0-11.1,0.3-16.2,0.3c-0.7-0.4-3.1,5.8-3,12.6c-1.2,6.7-2.4,13.4-3.6,20
	c3.5,0.1,7-0.1,10.5,0.2c2.6,0.2,5.4,1.1,6.4,3.6c1.1,2.7-0.2,5.3-2.1,7.5c-5.6,6.4-12.9,9.5-21.1,10.6c-4.4,0.6-7.5-2.5-7.6-7
	c-0.1-4.1-0.6-8.2,2-11.9c0.5-0.7,1.1-1.1,1.8-1.2c1.7-7.8,2-15.9,3.5-23.8c0.2-0.9,0.5-1.7,0.7-2.6c0.3-2.8,1.8-5.5,1.1-8.4
	c-5.2-0.1-10.4-0.1-15.6-0.1c-1.7-2.2-3.1,3-5.6,2.6c-1.1,1.1-2.3,2.2-3.4,3.3c-3.9,3.3-5.4,3.5-6.1,7c0.5,5.9,0.9,11.9-0.7,17.7
	c-0.4,1.6-0.9,3.3-1.8,4.6c-2.3,3.7-5,3.8-7.3,0.2c-4.8-7.6-6.9-16.2-7.3-25.1c-0.1-2.4,1-3.9,3.1-5.1c3.2-1.7,6.5-2.8,10.1-1.7
	c0-1.2,7.5-3.7,0.9-3.5c-25.2,0-50.5,0-75.8,0c1.3,3.8,0.1,8.3,3.1,12c1.5-1.1,3.3-1.2,5.2-0.9c0.8,0,1.5-0.1,2.3-0.1
	c5.4-0.1,7.2,3.7,5.8,7.8c-1.3,3.9-3.9,7.2-7.1,10c-3.8,3.3-8,5.6-12.9,7c-2.9,0.9-4.9-0.5-7.2-1.3c-0.6-0.3-1-0.7-1-1.4
	c0-4.4-0.3-8.8-1-13.1c-1.7-4.8-0.5-9.7-0.9-14.6c-0.4-1.9-0.9-3.8-1.3-5.8c-7.7,0.5-15.5,0.5-23.2,0c-3.3,7.2-6.6,14.3-9.9,21.8
	c0.7,1.1,2.5,1.7,3.1,3.3c5.4,2.9,5.9,7.5,1.1,10.8c-7.6,5.2-20.9,5-27-0.2c-2.5-2.1-3.1-4.3-1.5-7.2c1.6-2.9,3.1-5.9,4.6-8.9
	c1.7-5.8,6.8-9.5,9-15.1c0.5-1.3,0.9-2.5,1.1-3.8c-6.5-0.9-13.1-0.2-19.6-0.4c-3.9-0.1-7.8,0.3-11.8-0.3c-0.7-3.2,2.2-4.8,2.9-7.5
	c-2.5-0.1-4.1,1.3-5.8,2.4c-1.3-3.2-1.6-6.8-5-8.9c-0.1,3.8,2.2,7.8-2,10.9c-2.8-2.7-5.8-5.2-10.2-3.8c2.8,1.7,6.1,2.8,6.9,6.5
	c-0.6,0.4-4,0.6-8.5,0.8V539c191.6,0.1,361.8,0.5,555.4,0.5c1.5,0,3.1,0.5,4.4-0.5c0-20,0-40,0-60C520.3,479,480.9,479,441.4,478.9z
	 M160.7,485.2c-0.1,0.8-1.4,1-2.4,1c-1.1,0-2.2-0.2-3.2,0.1c-3.8,1.1-6.6,0.6-7.9-3.7c-0.4-1.4-1.7-2-3-2.7c-1-0.5-2.3-0.7-2.9-2.5
	c3.3-0.2,5.8,1,8.3,2.7c2.7,1.8,4.1,1.1,4.3-2.2c0.1-0.9,0-1.8,0-2.7c0-0.7,0.1-1.5,0.3-2.5c3.7,1,2.5,4.6,3.9,6.7
	c3.1,0.3,4.7-3.7,8.6-2.9C164.5,479.5,161,481.3,160.7,485.2z M295.2,487.1c-0.2,1-1.3,1.3-2.1,1.6c-2.2,0.7-4.6,0-6.8,0.3
	c-2.8,0.4-3.5-1.9-4.8-3.5c-1.8-2.1-2.9-2.8-6.8-4.4c4.8-2.7,7.4,0.9,10.4,3.2c4.7-2.9,2.7-6.8,2-10.8c3.2,1.4,3.7,3.8,4.4,6
	c0.7,2.4,1.8,2.3,3.7,1.4c1.7-0.8,3-2.9,5.8-1.2C298.4,481.8,295.9,483.8,295.2,487.1z"/>
<rect y="534.9" class="st15" width="559.4" height="66.1"/>
<path class="st14" d="M344.3,539.4c0,0-0.3-4.5,8.4-10c0,0-6.8,0.8-8.4,2.5c-1.6,1.7-3.9,4.2-3.9,4.2s0.6-10.5-2.5-12.3
	c0,0,2.3,9.3,0,12.3c0,0-4.6-7.7-10.5-6.4c0,0,6.2,3.1,6.2,8.1s0.6,1.6,0.6,1.6H344.3z"/>
<path class="st14" d="M420,502.1c0,0-0.3-4.5,8.4-10c0,0-6.8,0.8-8.4,2.5c-1.6,1.7-3.9,4.2-3.9,4.2s0.6-10.5-2.5-12.3
	c0,0,2.3,9.3,0,12.3c0,0-4.6-7.7-10.5-6.4c0,0,6.2,3.1,6.2,8.1c0,4.9,0.6,1.6,0.6,1.6H420z"/>
<path class="st14" d="M220.8,575.2c0,0-0.3-4.5,8.4-10c0,0-6.8,0.8-8.4,2.5c-1.6,1.7-3.9,4.2-3.9,4.2s0.6-10.5-2.5-12.3
	c0,0,2.3,9.3,0,12.3c0,0-4.6-7.7-10.5-6.4c0,0,6.2,3.1,6.2,8.1s0.6,1.6,0.6,1.6H220.8z"/>
<path class="st14" d="M68.2,575.2c0,0-0.3-4.5,8.4-10c0,0-6.8,0.8-8.4,2.5s-3.9,4.2-3.9,4.2s0.6-10.5-2.5-12.3c0,0,2.3,9.3,0,12.3
	c0,0-4.6-7.7-10.5-6.4c0,0,6.2,3.1,6.2,8.1s0.6,1.6,0.6,1.6H68.2z"/>
<path class="st14" d="M489.6,571.4c0,0-0.3-4.5,8.4-10c0,0-6.8,0.8-8.4,2.5c-1.6,1.7-3.9,4.2-3.9,4.2s0.6-10.5-2.5-12.3
	c0,0,2.3,9.3,0,12.3c0,0-4.6-7.7-10.5-6.4c0,0,6.2,3.1,6.2,8.1s0.6,1.6,0.6,1.6H489.6z"/>
<path class="st14" d="M539.6,527.4c0,0-0.3-4.5,8.4-10c0,0-6.8,0.8-8.4,2.5c-1.6,1.7-3.9,4.2-3.9,4.2s0.6-10.5-2.5-12.3
	c0,0,2.3,9.3,0,12.3c0,0-4.6-7.7-10.5-6.4c0,0,6.2,3.1,6.2,8.1c0,4.9,0.6,1.6,0.6,1.6H539.6z"/>
</svg>
