<?xml version="1.0" encoding="utf-8"?>
<!-- Generator: Adobe Illustrator 23.1.1, SVG Export Plug-In . SVG Version: 6.00 Build 0)  -->
<svg version="1.1" id="Capa_1" xmlns="http://www.w3.org/2000/svg" xmlns:xlink="http://www.w3.org/1999/xlink" x="0px" y="0px"
	 viewBox="0 0 1933 571" style="enable-background:new 0 0 1933 571;" xml:space="preserve">
<style type="text/css">
	.st0{fill:#B1945F;}
	.st1{fill:#FFFFFF;}
</style>
<g>
	<rect x="36" y="32.8" class="st0" width="1860" height="504.5"/>
	<g>
		<path class="st1" d="M447.4,379.6c-0.8,2-2,3.7-3.5,5.1c-1.5,1.4-3.3,2.6-5.4,3.4c-2.1,0.8-4.4,1.2-6.9,1.2h-11.1v-31.9h11.1
			c2.5,0,4.8,0.4,6.9,1.2c2.1,0.8,3.9,1.9,5.4,3.4c1.5,1.4,2.7,3.1,3.5,5.1c0.8,1.9,1.2,4,1.2,6.3
			C448.6,375.5,448.2,377.6,447.4,379.6z M443.9,368.4c-0.6-1.5-1.5-2.9-2.6-4s-2.5-2-4.2-2.7c-1.6-0.7-3.5-1-5.5-1h-7.5v25.3h7.5
			c2,0,3.8-0.3,5.5-1c1.6-0.6,3-1.5,4.2-2.7s2-2.5,2.6-4c0.6-1.5,0.9-3.2,0.9-5C444.9,371.6,444.5,369.9,443.9,368.4z"/>
		<path class="st1" d="M458.7,382.2c0.5,1,1.1,1.8,1.9,2.5c0.8,0.7,1.6,1.2,2.6,1.5c0.9,0.4,1.9,0.5,3,0.5c1.6,0,3-0.3,4.2-0.9
			c1.2-0.6,2.2-1.4,3.2-2.4l2.2,2c-1.2,1.3-2.5,2.4-4.1,3.2c-1.5,0.8-3.4,1.2-5.7,1.2c-1.6,0-3.1-0.3-4.6-0.9
			c-1.4-0.6-2.7-1.4-3.7-2.5c-1.1-1.1-1.9-2.4-2.6-3.9c-0.6-1.5-0.9-3.2-0.9-5c0-1.7,0.3-3.3,0.8-4.8c0.6-1.5,1.3-2.8,2.3-3.9
			s2.2-2,3.6-2.6c1.4-0.6,2.9-1,4.5-1c1.7,0,3.3,0.3,4.6,1c1.4,0.7,2.5,1.5,3.5,2.7c0.9,1.1,1.7,2.4,2.1,4c0.5,1.5,0.7,3.1,0.7,4.9
			c0,0.2,0,0.3,0,0.5c0,0.2,0,0.4,0,0.6h-18.6C457.9,380.1,458.2,381.2,458.7,382.2z M472.9,376.2c-0.1-1.1-0.3-2.1-0.7-3.1
			c-0.3-1-0.8-1.8-1.4-2.6c-0.6-0.7-1.4-1.3-2.3-1.8c-0.9-0.4-1.9-0.7-3.1-0.7c-1,0-2,0.2-2.9,0.6c-0.9,0.4-1.6,1-2.3,1.7
			c-0.7,0.7-1.2,1.6-1.6,2.5c-0.4,1-0.7,2-0.8,3.2H472.9z"/>
		<path class="st1" d="M482.9,389.3V356h3.5v33.3H482.9z"/>
		<path class="st1" d="M533.2,379.7c-0.6,2-1.5,3.8-2.7,5.3c-1.2,1.5-2.6,2.7-4.3,3.6c-1.7,0.9-3.5,1.3-5.6,1.3
			c-2.1,0-3.9-0.4-5.6-1.3c-1.7-0.9-3.1-2.1-4.2-3.6c-1.2-1.5-2.1-3.3-2.7-5.2c-0.6-2-0.9-4.1-0.9-6.4c0-2.2,0.3-4.4,1-6.4
			s1.5-3.8,2.7-5.3s2.6-2.7,4.3-3.6c1.7-0.9,3.5-1.3,5.6-1.3c2,0,3.9,0.4,5.5,1.3c1.7,0.9,3.1,2.1,4.2,3.6c1.2,1.5,2.1,3.3,2.7,5.2
			c0.6,2,0.9,4.1,0.9,6.4C534.1,375.5,533.8,377.7,533.2,379.7z M529.7,368.3c-0.5-1.6-1.1-3-2-4.2c-0.9-1.2-1.9-2.2-3.1-2.9
			c-1.2-0.7-2.5-1.1-4-1.1c-1.5,0-2.8,0.4-4,1.1c-1.2,0.7-2.2,1.7-3.1,2.9c-0.8,1.2-1.5,2.6-1.9,4.2s-0.7,3.3-0.7,5
			c0,1.8,0.2,3.4,0.7,5.1c0.5,1.6,1.1,3,2,4.2c0.9,1.2,1.9,2.2,3.1,2.9c1.2,0.7,2.6,1.1,4.1,1.1c1.5,0,2.8-0.4,4-1.1
			c1.2-0.7,2.2-1.7,3.1-2.9c0.8-1.2,1.5-2.6,1.9-4.2c0.4-1.6,0.7-3.3,0.7-5C530.4,371.6,530.2,369.9,529.7,368.3z"/>
		<path class="st1" d="M560.1,357.1v21.6h5v3h-5v7.6h-3.5v-7.6h-16.8l-0.9-2.6l18.1-22H560.1z M556.6,362.2l-13.4,16.5h13.4V362.2z"
			/>
		<path class="st1" d="M589.9,369c-1.1,0.3-2.3,0.7-3.4,1.3l-1-2.9c1.3-0.6,2.6-1.1,4-1.4c1.3-0.3,2.9-0.5,4.6-0.5
			c3.2,0,5.7,0.8,7.4,2.4c1.7,1.6,2.6,4,2.6,7.1v14.4h-3.4v-3.6c-0.8,1.1-1.9,2-3.3,2.8c-1.4,0.8-3.1,1.2-5.2,1.2
			c-1.1,0-2.2-0.2-3.2-0.5c-1-0.3-2-0.8-2.8-1.4c-0.8-0.6-1.5-1.4-2-2.3s-0.8-2-0.8-3.2c0-1.2,0.2-2.3,0.7-3.3
			c0.5-1,1.2-1.8,2.1-2.4c0.9-0.6,2-1.1,3.2-1.5c1.2-0.3,2.6-0.5,4.1-0.5c1.5,0,2.8,0.1,4,0.3c1.1,0.2,2.2,0.4,3.3,0.7v-0.8
			c0-2.1-0.6-3.7-1.8-4.8c-1.2-1.1-3-1.6-5.2-1.6C592.3,368.5,591,368.6,589.9,369z M588.7,378.7c-1.2,0.9-1.8,2.1-1.8,3.6
			c0,0.8,0.2,1.4,0.5,2c0.3,0.6,0.7,1.1,1.3,1.5c0.5,0.4,1.2,0.7,1.9,0.9c0.7,0.2,1.5,0.3,2.2,0.3c1.1,0,2.1-0.2,3.1-0.5
			c1-0.3,1.8-0.8,2.5-1.3c0.7-0.6,1.3-1.2,1.7-2s0.6-1.6,0.6-2.6v-2.3c-0.9-0.2-1.9-0.5-3-0.7c-1.1-0.2-2.4-0.3-3.9-0.3
			C591.6,377.3,589.9,377.8,588.7,378.7z"/>
		<path class="st1" d="M611.8,389.3V356h3.5v33.3H611.8z"/>
		<path class="st1" d="M662.1,379.7c-0.6,2-1.5,3.8-2.7,5.3c-1.2,1.5-2.6,2.7-4.3,3.6c-1.7,0.9-3.5,1.3-5.6,1.3
			c-2.1,0-3.9-0.4-5.6-1.3c-1.7-0.9-3.1-2.1-4.2-3.6c-1.2-1.5-2.1-3.3-2.7-5.2c-0.6-2-0.9-4.1-0.9-6.4c0-2.2,0.3-4.4,1-6.4
			s1.5-3.8,2.7-5.3s2.6-2.7,4.3-3.6c1.7-0.9,3.5-1.3,5.6-1.3c2,0,3.9,0.4,5.5,1.3c1.7,0.9,3.1,2.1,4.2,3.6c1.2,1.5,2.1,3.3,2.7,5.2
			c0.6,2,0.9,4.1,0.9,6.4C663,375.5,662.7,377.7,662.1,379.7z M658.6,368.3c-0.5-1.6-1.1-3-2-4.2c-0.9-1.2-1.9-2.2-3.1-2.9
			c-1.2-0.7-2.5-1.1-4-1.1c-1.5,0-2.8,0.4-4,1.1c-1.2,0.7-2.2,1.7-3.1,2.9c-0.8,1.2-1.5,2.6-1.9,4.2s-0.7,3.3-0.7,5
			c0,1.8,0.2,3.4,0.7,5.1c0.5,1.6,1.1,3,2,4.2c0.9,1.2,1.9,2.2,3.1,2.9c1.2,0.7,2.6,1.1,4.1,1.1c1.5,0,2.8-0.4,4-1.1
			c1.2-0.7,2.2-1.7,3.1-2.9c0.8-1.2,1.5-2.6,1.9-4.2c0.4-1.6,0.7-3.3,0.7-5C659.3,371.6,659.1,369.9,658.6,368.3z"/>
		<path class="st1" d="M691.3,384.4c-0.6,1.1-1.4,2.1-2.5,2.9c-1.1,0.8-2.3,1.4-3.8,1.8c-1.5,0.4-3,0.7-4.7,0.7
			c-1.7,0-3.3-0.2-4.7-0.7c-1.5-0.4-2.7-1.1-3.8-1.8c-1.1-0.8-1.9-1.7-2.5-2.9c-0.6-1.1-0.9-2.4-0.9-3.7c0-1.9,0.6-3.5,1.8-4.9
			c1.2-1.3,2.8-2.3,4.7-3c-0.7-0.3-1.4-0.7-2.1-1.2c-0.7-0.5-1.3-1-1.8-1.6c-0.5-0.6-0.9-1.3-1.2-2c-0.3-0.8-0.4-1.6-0.4-2.6
			c0-1.2,0.3-2.4,0.9-3.4c0.6-1,1.4-1.9,2.4-2.7c1-0.8,2.1-1.3,3.5-1.8c1.3-0.4,2.7-0.6,4.2-0.6s2.8,0.2,4.2,0.6
			c1.3,0.4,2.5,1,3.5,1.8c1,0.8,1.8,1.7,2.4,2.7c0.6,1,0.9,2.2,0.9,3.4c0,0.9-0.1,1.8-0.4,2.6c-0.3,0.8-0.7,1.4-1.2,2
			s-1.1,1.1-1.8,1.6c-0.7,0.5-1.4,0.9-2.1,1.2c1.9,0.7,3.5,1.7,4.7,3c1.2,1.3,1.8,2.9,1.8,4.8C692.2,382,691.9,383.2,691.3,384.4z
			 M687.9,378.1c-0.4-0.7-1-1.4-1.8-1.9c-0.7-0.5-1.6-0.9-2.7-1.2c-1-0.3-2.1-0.5-3.3-0.5s-2.2,0.2-3.3,0.5c-1,0.3-1.9,0.7-2.7,1.2
			c-0.8,0.5-1.4,1.2-1.8,1.9c-0.4,0.7-0.6,1.6-0.6,2.5c0,0.8,0.2,1.6,0.6,2.3c0.4,0.7,0.9,1.4,1.6,1.9c0.7,0.5,1.6,1,2.6,1.3
			c1,0.3,2.2,0.5,3.5,0.5s2.5-0.2,3.5-0.5c1-0.3,1.9-0.7,2.6-1.3c0.7-0.5,1.3-1.2,1.6-1.9c0.4-0.7,0.6-1.5,0.6-2.3
			C688.6,379.6,688.3,378.8,687.9,378.1z M687,363.4c-0.4-0.7-0.9-1.3-1.5-1.8c-0.7-0.5-1.4-0.9-2.3-1.2c-0.9-0.3-1.9-0.4-2.9-0.4
			c-1,0-2,0.1-2.9,0.4c-0.9,0.3-1.7,0.7-2.3,1.2c-0.7,0.5-1.2,1.1-1.5,1.7s-0.5,1.4-0.5,2.2c0,0.9,0.2,1.7,0.6,2.4
			c0.4,0.7,0.9,1.3,1.5,1.8c0.7,0.5,1.4,0.9,2.3,1.2c0.9,0.3,1.8,0.4,2.8,0.4s2-0.1,2.8-0.4c0.9-0.3,1.7-0.7,2.3-1.2
			c0.7-0.5,1.2-1.1,1.5-1.8c0.4-0.7,0.6-1.5,0.6-2.4C687.5,364.9,687.3,364.1,687,363.4z"/>
		<path class="st1" d="M731.1,389.3v-4.7c-0.5,0.7-1,1.4-1.6,2c-0.6,0.6-1.3,1.2-2,1.7c-0.7,0.5-1.5,0.9-2.4,1.1
			c-0.9,0.3-1.9,0.4-3,0.4c-1.4,0-2.8-0.3-4.1-0.8c-1.3-0.5-2.5-1.3-3.6-2.4c-1.1-1-1.9-2.3-2.6-3.9c-0.6-1.5-1-3.3-1-5.2
			c0-1.9,0.3-3.7,1-5.2c0.6-1.5,1.5-2.8,2.6-3.9c1.1-1,2.3-1.9,3.6-2.4c1.3-0.6,2.7-0.8,4.1-0.8c1.1,0,2.1,0.1,3,0.4
			c0.9,0.3,1.7,0.6,2.5,1.1c0.7,0.5,1.4,1,2,1.6c0.6,0.6,1.1,1.2,1.6,1.9V356h3.5v33.3H731.1z M730.5,373.8
			c-0.5-1.1-1.1-2.1-1.9-2.9c-0.8-0.8-1.7-1.4-2.7-1.8c-1-0.4-2.1-0.7-3.2-0.7c-1.2,0-2.2,0.2-3.2,0.6c-1,0.4-1.9,1-2.6,1.8
			c-0.7,0.8-1.3,1.7-1.8,2.9c-0.4,1.1-0.7,2.4-0.7,3.8c0,1.4,0.2,2.6,0.7,3.8c0.4,1.1,1,2.1,1.8,2.9c0.8,0.8,1.6,1.4,2.6,1.8
			c1,0.4,2.1,0.6,3.2,0.6c1.1,0,2.1-0.2,3.2-0.7c1-0.4,1.9-1.1,2.7-1.8c0.8-0.8,1.4-1.7,1.9-2.9c0.5-1.1,0.7-2.4,0.7-3.7
			S731,374.9,730.5,373.8z"/>
		<path class="st1" d="M745.5,382.2c0.5,1,1.1,1.8,1.9,2.5c0.8,0.7,1.6,1.2,2.6,1.5c0.9,0.4,1.9,0.5,3,0.5c1.6,0,3-0.3,4.2-0.9
			c1.2-0.6,2.2-1.4,3.2-2.4l2.2,2c-1.2,1.3-2.5,2.4-4.1,3.2c-1.5,0.8-3.4,1.2-5.7,1.2c-1.6,0-3.1-0.3-4.6-0.9
			c-1.4-0.6-2.7-1.4-3.7-2.5c-1.1-1.1-1.9-2.4-2.6-3.9c-0.6-1.5-0.9-3.2-0.9-5c0-1.7,0.3-3.3,0.8-4.8c0.6-1.5,1.3-2.8,2.3-3.9
			s2.2-2,3.6-2.6c1.4-0.6,2.9-1,4.5-1c1.7,0,3.3,0.3,4.6,1c1.4,0.7,2.5,1.5,3.5,2.7c0.9,1.1,1.7,2.4,2.1,4c0.5,1.5,0.7,3.1,0.7,4.9
			c0,0.2,0,0.3,0,0.5c0,0.2,0,0.4,0,0.6h-18.6C744.7,380.1,745,381.2,745.5,382.2z M759.7,376.2c-0.1-1.1-0.3-2.1-0.7-3.1
			c-0.3-1-0.8-1.8-1.4-2.6c-0.6-0.7-1.4-1.3-2.3-1.8c-0.9-0.4-1.9-0.7-3.1-0.7c-1,0-2,0.2-2.9,0.6c-0.9,0.4-1.6,1-2.3,1.7
			c-0.7,0.7-1.2,1.6-1.6,2.5c-0.4,1-0.7,2-0.8,3.2H759.7z"/>
		<path class="st1" d="M786.9,365.7v24.9c0,2.1-0.5,3.6-1.5,4.6c-1,1-2.4,1.5-4.2,1.5c-0.4,0-0.8,0-1.1,0c-0.3,0-0.7-0.1-1.1-0.2
			v-2.9c0.3,0.1,0.6,0.1,0.9,0.1c0.3,0,0.6,0,0.8,0c0.8,0,1.4-0.3,1.9-0.8s0.8-1.3,0.8-2.4v-24.9H786.9z M783.2,360.6v-3.9h4v3.9
			H783.2z"/>
		<path class="st1" d="M811.8,365.7h3.5v23.6h-3.5v-4.1c-0.8,1.3-1.8,2.4-3.1,3.3c-1.3,0.9-2.9,1.3-5,1.3c-1.4,0-2.7-0.2-3.8-0.7
			c-1.1-0.5-2.1-1.1-2.8-1.9s-1.4-1.8-1.8-3c-0.4-1.2-0.6-2.4-0.6-3.8v-14.6h3.5v13.8c0,2.2,0.6,3.9,1.7,5.2
			c1.1,1.3,2.7,1.9,4.8,1.9c1,0,1.9-0.2,2.8-0.5c0.9-0.3,1.6-0.9,2.2-1.5c0.6-0.7,1.1-1.4,1.5-2.3c0.4-0.9,0.5-1.9,0.5-3V365.7z"/>
		<path class="st1" d="M823.5,389.3V356h3.5v33.3H823.5z"/>
		<path class="st1" d="M835.3,360.6v-3.9h4v3.9H835.3z M835.5,389.3v-23.6h3.5v23.6H835.5z"/>
		<path class="st1" d="M869.3,382.2c-0.6,1.5-1.5,2.8-2.6,3.9c-1.1,1.1-2.4,2-3.9,2.7c-1.5,0.7-3.2,1-4.9,1s-3.4-0.3-4.9-1
			c-1.5-0.7-2.8-1.5-3.9-2.6c-1.1-1.1-1.9-2.4-2.6-3.9c-0.6-1.5-0.9-3.1-0.9-4.7c0-1.7,0.3-3.3,0.9-4.8c0.6-1.5,1.5-2.8,2.6-3.9
			c1.1-1.1,2.4-2,3.9-2.7c1.5-0.7,3.2-1,4.9-1c1.8,0,3.4,0.3,4.9,1c1.5,0.7,2.8,1.5,3.9,2.6c1.1,1.1,1.9,2.4,2.6,3.9
			c0.6,1.5,0.9,3.1,0.9,4.7S870,380.7,869.3,382.2z M866,373.9c-0.4-1.1-1.1-2.1-1.8-2.9c-0.8-0.8-1.7-1.5-2.8-2
			c-1.1-0.5-2.2-0.7-3.5-0.7c-1.3,0-2.4,0.2-3.5,0.7c-1.1,0.5-2,1.1-2.7,2c-0.7,0.8-1.3,1.8-1.8,2.9c-0.4,1.1-0.6,2.3-0.6,3.6
			c0,1.3,0.2,2.5,0.7,3.6c0.4,1.1,1,2.1,1.8,2.9s1.7,1.5,2.8,2c1.1,0.5,2.2,0.7,3.5,0.7c1.3,0,2.4-0.2,3.5-0.7
			c1.1-0.5,2-1.1,2.7-1.9c0.8-0.8,1.4-1.8,1.8-2.9c0.4-1.1,0.6-2.3,0.6-3.6C866.7,376.3,866.5,375.1,866,373.9z"/>
		<path class="st1" d="M909.2,389.3v-4.7c-0.5,0.7-1,1.4-1.6,2c-0.6,0.6-1.3,1.2-2,1.7c-0.7,0.5-1.5,0.9-2.4,1.1
			c-0.9,0.3-1.9,0.4-3,0.4c-1.4,0-2.8-0.3-4.1-0.8c-1.3-0.5-2.5-1.3-3.6-2.4c-1.1-1-1.9-2.3-2.6-3.9c-0.6-1.5-1-3.3-1-5.2
			c0-1.9,0.3-3.7,1-5.2c0.6-1.5,1.5-2.8,2.6-3.9c1.1-1,2.3-1.9,3.6-2.4c1.3-0.6,2.7-0.8,4.1-0.8c1.1,0,2.1,0.1,3,0.4
			c0.9,0.3,1.7,0.6,2.5,1.1c0.7,0.5,1.4,1,2,1.6c0.6,0.6,1.1,1.2,1.6,1.9V356h3.5v33.3H909.2z M908.6,373.8
			c-0.5-1.1-1.1-2.1-1.9-2.9c-0.8-0.8-1.7-1.4-2.7-1.8c-1-0.4-2.1-0.7-3.2-0.7c-1.2,0-2.2,0.2-3.2,0.6c-1,0.4-1.9,1-2.6,1.8
			c-0.7,0.8-1.3,1.7-1.8,2.9c-0.4,1.1-0.7,2.4-0.7,3.8c0,1.4,0.2,2.6,0.7,3.8c0.4,1.1,1,2.1,1.8,2.9c0.8,0.8,1.6,1.4,2.6,1.8
			c1,0.4,2.1,0.6,3.2,0.6c1.1,0,2.1-0.2,3.2-0.7c1-0.4,1.9-1.1,2.7-1.8c0.8-0.8,1.4-1.7,1.9-2.9c0.5-1.1,0.7-2.4,0.7-3.7
			S909.1,374.9,908.6,373.8z"/>
		<path class="st1" d="M923.6,382.2c0.5,1,1.1,1.8,1.9,2.5c0.8,0.7,1.6,1.2,2.6,1.5c0.9,0.4,1.9,0.5,3,0.5c1.6,0,3-0.3,4.2-0.9
			c1.2-0.6,2.2-1.4,3.2-2.4l2.2,2c-1.2,1.3-2.5,2.4-4.1,3.2c-1.5,0.8-3.4,1.2-5.7,1.2c-1.6,0-3.1-0.3-4.6-0.9
			c-1.4-0.6-2.7-1.4-3.7-2.5c-1.1-1.1-1.9-2.4-2.6-3.9c-0.6-1.5-0.9-3.2-0.9-5c0-1.7,0.3-3.3,0.8-4.8c0.6-1.5,1.3-2.8,2.3-3.9
			s2.2-2,3.6-2.6c1.4-0.6,2.9-1,4.5-1c1.7,0,3.3,0.3,4.6,1c1.4,0.7,2.5,1.5,3.5,2.7c0.9,1.1,1.7,2.4,2.1,4c0.5,1.5,0.7,3.1,0.7,4.9
			c0,0.2,0,0.3,0,0.5c0,0.2,0,0.4,0,0.6h-18.6C922.8,380.1,923.1,381.2,923.6,382.2z M937.8,376.2c-0.1-1.1-0.3-2.1-0.7-3.1
			c-0.3-1-0.8-1.8-1.4-2.6c-0.6-0.7-1.4-1.3-2.3-1.8c-0.9-0.4-1.9-0.7-3.1-0.7c-1,0-2,0.2-2.9,0.6c-0.9,0.4-1.6,1-2.3,1.7
			c-0.7,0.7-1.2,1.6-1.6,2.5c-0.4,1-0.7,2-0.8,3.2H937.8z"/>
		<path class="st1" d="M966.6,361.5c-1.3,0.9-2.6,2.3-3.9,4.1l-2.6-1.9c0.7-1.1,1.5-2,2.2-2.9c0.8-0.8,1.6-1.6,2.5-2.1
			c0.9-0.6,1.9-1,3-1.3c1.1-0.3,2.4-0.4,3.8-0.4c1.5,0,2.8,0.2,4,0.7c1.2,0.5,2.2,1.1,3.1,1.9c0.9,0.8,1.6,1.8,2.1,2.9
			c0.5,1.1,0.7,2.3,0.7,3.6c0,1.2-0.2,2.3-0.5,3.2c-0.3,1-0.8,1.9-1.5,2.9c-0.7,1-1.5,1.9-2.5,3c-1,1-2.2,2.1-3.6,3.4l-8.5,7.6h16.9
			v3.3h-22.3v-2.8l11.6-10.2c1.2-1.1,2.2-2.1,3.1-3c0.9-0.9,1.5-1.7,2.1-2.5c0.5-0.8,0.9-1.5,1.1-2.3c0.2-0.7,0.3-1.5,0.3-2.3
			c0-0.9-0.2-1.8-0.5-2.5c-0.3-0.7-0.8-1.4-1.4-1.9c-0.6-0.5-1.3-0.9-2.1-1.2s-1.6-0.4-2.5-0.4C969.5,360.1,967.9,360.6,966.6,361.5
			z"/>
		<path class="st1" d="M1013.4,379.7c-0.6,2-1.5,3.8-2.7,5.3c-1.2,1.5-2.6,2.7-4.3,3.6c-1.7,0.9-3.5,1.3-5.6,1.3
			c-2.1,0-3.9-0.4-5.6-1.3c-1.7-0.9-3.1-2.1-4.2-3.6c-1.2-1.5-2.1-3.3-2.7-5.2c-0.6-2-0.9-4.1-0.9-6.4c0-2.2,0.3-4.4,1-6.4
			c0.6-2,1.5-3.8,2.7-5.3s2.6-2.7,4.3-3.6c1.7-0.9,3.5-1.3,5.6-1.3c2,0,3.9,0.4,5.5,1.3c1.7,0.9,3.1,2.1,4.2,3.6s2.1,3.3,2.7,5.2
			c0.6,2,0.9,4.1,0.9,6.4C1014.4,375.5,1014.1,377.7,1013.4,379.7z M1010,368.3c-0.5-1.6-1.1-3-2-4.2c-0.9-1.2-1.9-2.2-3.1-2.9
			c-1.2-0.7-2.5-1.1-4-1.1c-1.5,0-2.8,0.4-4,1.1c-1.2,0.7-2.2,1.7-3.1,2.9c-0.8,1.2-1.5,2.6-1.9,4.2c-0.5,1.6-0.7,3.3-0.7,5
			c0,1.8,0.2,3.4,0.7,5.1c0.5,1.6,1.1,3,2,4.2c0.9,1.2,1.9,2.2,3.1,2.9c1.2,0.7,2.6,1.1,4.1,1.1c1.5,0,2.8-0.4,4-1.1
			c1.2-0.7,2.2-1.7,3.1-2.9c0.8-1.2,1.5-2.6,1.9-4.2c0.4-1.6,0.7-3.3,0.7-5C1010.6,371.6,1010.4,369.9,1010,368.3z"/>
		<path class="st1" d="M1026.1,361.5c-1.3,0.9-2.6,2.3-3.9,4.1l-2.6-1.9c0.7-1.1,1.5-2,2.2-2.9c0.8-0.8,1.6-1.6,2.5-2.1
			c0.9-0.6,1.9-1,3-1.3c1.1-0.3,2.4-0.4,3.8-0.4c1.5,0,2.8,0.2,4,0.7c1.2,0.5,2.2,1.1,3.1,1.9c0.9,0.8,1.6,1.8,2.1,2.9
			c0.5,1.1,0.7,2.3,0.7,3.6c0,1.2-0.2,2.3-0.5,3.2c-0.3,1-0.8,1.9-1.5,2.9c-0.7,1-1.5,1.9-2.5,3c-1,1-2.2,2.1-3.6,3.4l-8.5,7.6h16.9
			v3.3h-22.3v-2.8l11.6-10.2c1.2-1.1,2.2-2.1,3.1-3c0.9-0.9,1.5-1.7,2.1-2.5c0.5-0.8,0.9-1.5,1.1-2.3c0.2-0.7,0.3-1.5,0.3-2.3
			c0-0.9-0.2-1.8-0.5-2.5c-0.3-0.7-0.8-1.4-1.4-1.9c-0.6-0.5-1.3-0.9-2.1-1.2s-1.6-0.4-2.5-0.4
			C1028.9,360.1,1027.4,360.6,1026.1,361.5z"/>
		<path class="st1" d="M1053.4,361.5c-1.3,0.9-2.6,2.3-3.9,4.1l-2.6-1.9c0.7-1.1,1.5-2,2.2-2.9c0.8-0.8,1.6-1.6,2.5-2.1
			c0.9-0.6,1.9-1,3-1.3c1.1-0.3,2.4-0.4,3.8-0.4c1.5,0,2.8,0.2,4,0.7c1.2,0.5,2.2,1.1,3.1,1.9c0.9,0.8,1.6,1.8,2.1,2.9
			c0.5,1.1,0.7,2.3,0.7,3.6c0,1.2-0.2,2.3-0.5,3.2c-0.3,1-0.8,1.9-1.5,2.9c-0.7,1-1.5,1.9-2.5,3c-1,1-2.2,2.1-3.6,3.4l-8.5,7.6h16.9
			v3.3h-22.3v-2.8l11.6-10.2c1.2-1.1,2.2-2.1,3.1-3c0.9-0.9,1.5-1.7,2.1-2.5c0.5-0.8,0.9-1.5,1.1-2.3c0.2-0.7,0.3-1.5,0.3-2.3
			c0-0.9-0.2-1.8-0.5-2.5c-0.3-0.7-0.8-1.4-1.4-1.9c-0.6-0.5-1.3-0.9-2.1-1.2s-1.6-0.4-2.5-0.4
			C1056.2,360.1,1054.7,360.6,1053.4,361.5z"/>
		<path class="st1" d="M1075.9,391.7c0.5-0.6,0.7-1.4,0.6-2.4h-1.6v-4.8h4.2v4.1c0,1.9-0.4,3.3-1.2,4.2c-0.8,1-2.1,1.6-3.8,2
			l-0.5-1.6C1074.6,392.8,1075.4,392.3,1075.9,391.7z"/>
		<path class="st1" d="M1104.9,369c-1.1,0.3-2.3,0.7-3.4,1.3l-1-2.9c1.3-0.6,2.6-1.1,4-1.4c1.3-0.3,2.9-0.5,4.6-0.5
			c3.2,0,5.7,0.8,7.4,2.4c1.7,1.6,2.6,4,2.6,7.1v14.4h-3.4v-3.6c-0.8,1.1-1.9,2-3.3,2.8c-1.4,0.8-3.1,1.2-5.2,1.2
			c-1.1,0-2.2-0.2-3.2-0.5c-1-0.3-2-0.8-2.8-1.4c-0.8-0.6-1.5-1.4-2-2.3c-0.5-0.9-0.8-2-0.8-3.2c0-1.2,0.2-2.3,0.7-3.3
			c0.5-1,1.2-1.8,2.1-2.4s2-1.1,3.2-1.5c1.2-0.3,2.6-0.5,4.1-0.5c1.5,0,2.8,0.1,4,0.3c1.1,0.2,2.2,0.4,3.3,0.7v-0.8
			c0-2.1-0.6-3.7-1.8-4.8c-1.2-1.1-3-1.6-5.2-1.6C1107.3,368.5,1106,368.6,1104.9,369z M1103.7,378.7c-1.2,0.9-1.8,2.1-1.8,3.6
			c0,0.8,0.2,1.4,0.5,2c0.3,0.6,0.7,1.1,1.3,1.5c0.5,0.4,1.2,0.7,1.9,0.9c0.7,0.2,1.5,0.3,2.2,0.3c1.1,0,2.1-0.2,3.1-0.5
			c1-0.3,1.8-0.8,2.5-1.3c0.7-0.6,1.3-1.2,1.7-2s0.6-1.6,0.6-2.6v-2.3c-0.9-0.2-1.9-0.5-3-0.7c-1.1-0.2-2.4-0.3-3.9-0.3
			C1106.6,377.3,1104.9,377.8,1103.7,378.7z"/>
		<path class="st1" d="M1144.9,382.6c0,1.5,0.4,2.5,1.1,3.1c0.7,0.6,1.7,0.9,2.9,0.9c0.6,0,1.2-0.1,1.7-0.2c0.5-0.1,1.1-0.3,1.7-0.6
			v3c-0.6,0.3-1.3,0.6-1.9,0.8c-0.7,0.2-1.5,0.3-2.3,0.3c-0.9,0-1.8-0.1-2.6-0.4c-0.8-0.2-1.5-0.6-2.1-1.2c-0.6-0.5-1.1-1.2-1.4-2.1
			c-0.3-0.9-0.5-1.9-0.5-3.1v-14.2h-3.3v-3.1h3.3v-7.1h3.5v7.1h7.5v3.1h-7.5V382.6z"/>
		<path class="st1" d="M1162.1,389.3h-3.5v-23.6h3.5v6.2c0.4-1,1-1.9,1.6-2.7c0.6-0.8,1.4-1.5,2.2-2.1c0.8-0.6,1.7-1,2.7-1.3
			c1-0.3,2-0.4,3.1-0.4v3.8h-0.3c-1.3,0-2.5,0.2-3.6,0.7s-2.1,1.1-3,2.1c-0.9,0.9-1.5,2-2,3.4c-0.5,1.4-0.7,2.9-0.7,4.7V389.3z"/>
		<path class="st1" d="M1180.7,369c-1.1,0.3-2.3,0.7-3.4,1.3l-1-2.9c1.3-0.6,2.6-1.1,4-1.4c1.3-0.3,2.9-0.5,4.6-0.5
			c3.2,0,5.7,0.8,7.4,2.4c1.7,1.6,2.6,4,2.6,7.1v14.4h-3.4v-3.6c-0.8,1.1-1.9,2-3.3,2.8c-1.4,0.8-3.1,1.2-5.2,1.2
			c-1.1,0-2.2-0.2-3.2-0.5c-1-0.3-2-0.8-2.8-1.4c-0.8-0.6-1.5-1.4-2-2.3c-0.5-0.9-0.8-2-0.8-3.2c0-1.2,0.2-2.3,0.7-3.3
			c0.5-1,1.2-1.8,2.1-2.4s2-1.1,3.2-1.5c1.2-0.3,2.6-0.5,4.1-0.5c1.5,0,2.8,0.1,4,0.3c1.1,0.2,2.2,0.4,3.3,0.7v-0.8
			c0-2.1-0.6-3.7-1.8-4.8c-1.2-1.1-3-1.6-5.2-1.6C1183.1,368.5,1181.8,368.6,1180.7,369z M1179.6,378.7c-1.2,0.9-1.8,2.1-1.8,3.6
			c0,0.8,0.2,1.4,0.5,2c0.3,0.6,0.7,1.1,1.3,1.5c0.5,0.4,1.2,0.7,1.9,0.9c0.7,0.2,1.5,0.3,2.2,0.3c1.1,0,2.1-0.2,3.1-0.5
			c1-0.3,1.8-0.8,2.5-1.3c0.7-0.6,1.3-1.2,1.7-2s0.6-1.6,0.6-2.6v-2.3c-0.9-0.2-1.9-0.5-3-0.7c-1.1-0.2-2.4-0.3-3.9-0.3
			C1182.5,377.3,1180.8,377.8,1179.6,378.7z"/>
		<path class="st1" d="M1218.9,365.7h3.8l-10.3,23.8h-3.1l-10.2-23.8h3.9l7.9,19.6L1218.9,365.7z"/>
		<path class="st1" d="M1231.3,382.2c0.5,1,1.1,1.8,1.9,2.5c0.8,0.7,1.6,1.2,2.6,1.5c0.9,0.4,1.9,0.5,3,0.5c1.6,0,3-0.3,4.2-0.9
			s2.2-1.4,3.2-2.4l2.2,2c-1.2,1.3-2.5,2.4-4.1,3.2c-1.5,0.8-3.4,1.2-5.7,1.2c-1.6,0-3.1-0.3-4.6-0.9s-2.7-1.4-3.7-2.5
			c-1.1-1.1-1.9-2.4-2.6-3.9c-0.6-1.5-0.9-3.2-0.9-5c0-1.7,0.3-3.3,0.8-4.8s1.3-2.8,2.3-3.9s2.2-2,3.6-2.6s2.9-1,4.5-1
			c1.7,0,3.3,0.3,4.7,1c1.4,0.7,2.5,1.5,3.5,2.7c0.9,1.1,1.7,2.4,2.1,4c0.5,1.5,0.7,3.1,0.7,4.9c0,0.2,0,0.3,0,0.5
			c0,0.2,0,0.4,0,0.6h-18.6C1230.5,380.1,1230.8,381.2,1231.3,382.2z M1245.5,376.2c-0.1-1.1-0.3-2.1-0.7-3.1
			c-0.3-1-0.8-1.8-1.4-2.6c-0.6-0.7-1.4-1.3-2.3-1.8c-0.9-0.4-1.9-0.7-3.1-0.7c-1,0-2,0.2-2.9,0.6c-0.9,0.4-1.6,1-2.3,1.7
			c-0.7,0.7-1.2,1.6-1.6,2.5c-0.4,1-0.7,2-0.8,3.2H1245.5z M1235.9,362.2l4.3-6.6l3.6,1.7l-5.2,4.9H1235.9z"/>
		<path class="st1" d="M1270.7,385.7c-0.4,0.9-1,1.6-1.8,2.2c-0.7,0.6-1.6,1.1-2.6,1.4c-1,0.3-2.1,0.5-3.3,0.5
			c-1.7,0-3.4-0.3-5.2-0.9s-3.3-1.5-4.6-2.5l1.8-2.5c1.3,1,2.6,1.7,4,2.2c1.4,0.5,2.8,0.8,4.2,0.8c1.4,0,2.6-0.3,3.5-1
			c0.9-0.7,1.4-1.6,1.4-2.7v-0.1c0-0.6-0.2-1.1-0.5-1.5c-0.3-0.4-0.8-0.8-1.3-1.1c-0.5-0.3-1.2-0.6-1.9-0.8
			c-0.7-0.2-1.5-0.5-2.2-0.7c-0.9-0.3-1.8-0.6-2.8-0.9c-0.9-0.3-1.8-0.7-2.5-1.2c-0.7-0.5-1.4-1.1-1.8-1.8c-0.5-0.7-0.7-1.6-0.7-2.7
			V372c0-1,0.2-1.9,0.6-2.8c0.4-0.8,1-1.6,1.7-2.1c0.7-0.6,1.6-1,2.6-1.4c1-0.3,2.1-0.5,3.2-0.5c1.5,0,2.9,0.2,4.4,0.7
			c1.5,0.5,2.8,1.1,4.1,1.9l-1.6,2.6c-1.1-0.7-2.2-1.3-3.4-1.7c-1.2-0.4-2.4-0.6-3.5-0.6c-1.4,0-2.5,0.3-3.3,1
			c-0.8,0.7-1.2,1.5-1.2,2.4v0.1c0,0.5,0.2,1,0.5,1.4s0.8,0.8,1.3,1.1c0.6,0.3,1.2,0.6,1.9,0.8c0.7,0.2,1.5,0.5,2.3,0.7
			c0.9,0.3,1.8,0.6,2.7,0.9c0.9,0.3,1.7,0.8,2.4,1.3c0.7,0.5,1.3,1.1,1.8,1.9s0.7,1.6,0.7,2.7v0.1
			C1271.4,383.8,1271.2,384.8,1270.7,385.7z"/>
		<path class="st1" d="M1310.5,389.3v-4.7c-0.5,0.7-1,1.4-1.6,2s-1.3,1.2-2,1.7c-0.7,0.5-1.5,0.9-2.4,1.1s-1.9,0.4-3,0.4
			c-1.4,0-2.8-0.3-4.1-0.8c-1.3-0.5-2.5-1.3-3.6-2.4c-1.1-1-1.9-2.3-2.6-3.9c-0.6-1.5-1-3.3-1-5.2c0-1.9,0.3-3.7,1-5.2
			c0.6-1.5,1.5-2.8,2.6-3.9c1.1-1,2.3-1.9,3.6-2.4c1.3-0.6,2.7-0.8,4.1-0.8c1.1,0,2.1,0.1,3,0.4c0.9,0.3,1.7,0.6,2.5,1.1
			c0.7,0.5,1.4,1,2,1.6c0.6,0.6,1.1,1.2,1.6,1.9V356h3.5v33.3H1310.5z M1309.9,373.8c-0.5-1.1-1.1-2.1-1.9-2.9
			c-0.8-0.8-1.7-1.4-2.7-1.8c-1-0.4-2.1-0.7-3.2-0.7c-1.2,0-2.2,0.2-3.2,0.6c-1,0.4-1.9,1-2.6,1.8c-0.7,0.8-1.3,1.7-1.8,2.9
			c-0.4,1.1-0.7,2.4-0.7,3.8c0,1.4,0.2,2.6,0.7,3.8s1,2.1,1.8,2.9c0.8,0.8,1.6,1.4,2.6,1.8c1,0.4,2.1,0.6,3.2,0.6
			c1.1,0,2.2-0.2,3.2-0.7c1-0.4,1.9-1.1,2.7-1.8c0.8-0.8,1.4-1.7,1.9-2.9c0.5-1.1,0.7-2.4,0.7-3.7S1310.4,374.9,1309.9,373.8z"/>
		<path class="st1" d="M1324.9,382.2c0.5,1,1.1,1.8,1.9,2.5c0.8,0.7,1.6,1.2,2.6,1.5c0.9,0.4,1.9,0.5,3,0.5c1.6,0,3-0.3,4.2-0.9
			s2.2-1.4,3.2-2.4l2.2,2c-1.2,1.3-2.5,2.4-4.1,3.2c-1.5,0.8-3.4,1.2-5.7,1.2c-1.6,0-3.1-0.3-4.6-0.9s-2.7-1.4-3.7-2.5
			c-1.1-1.1-1.9-2.4-2.6-3.9c-0.6-1.5-0.9-3.2-0.9-5c0-1.7,0.3-3.3,0.8-4.8s1.3-2.8,2.3-3.9s2.2-2,3.6-2.6s2.9-1,4.5-1
			c1.7,0,3.3,0.3,4.7,1c1.4,0.7,2.5,1.5,3.5,2.7c0.9,1.1,1.7,2.4,2.1,4c0.5,1.5,0.7,3.1,0.7,4.9c0,0.2,0,0.3,0,0.5
			c0,0.2,0,0.4,0,0.6H1324C1324.1,380.1,1324.4,381.2,1324.9,382.2z M1339.1,376.2c-0.1-1.1-0.3-2.1-0.7-3.1c-0.3-1-0.8-1.8-1.4-2.6
			c-0.6-0.7-1.4-1.3-2.3-1.8c-0.9-0.4-1.9-0.7-3.1-0.7c-1,0-2,0.2-2.9,0.6c-0.9,0.4-1.6,1-2.3,1.7c-0.7,0.7-1.2,1.6-1.6,2.5
			c-0.4,1-0.7,2-0.8,3.2H1339.1z"/>
		<path class="st1" d="M1349.2,389.3V356h3.5v33.3H1349.2z"/>
		<path class="st1" d="M1390.7,388.5c-1.5,0.9-3.4,1.3-5.6,1.3c-1.7,0-3.3-0.3-4.8-1c-1.5-0.7-2.8-1.5-3.8-2.6
			c-1.1-1.1-1.9-2.4-2.5-3.9c-0.6-1.5-0.9-3.1-0.9-4.7c0-1.7,0.3-3.3,0.9-4.8c0.6-1.5,1.5-2.8,2.5-3.9c1.1-1.1,2.4-2,3.8-2.7
			c1.5-0.7,3.1-1,4.8-1c1.1,0,2.1,0.1,3.1,0.3c0.9,0.2,1.7,0.5,2.5,0.9c0.8,0.4,1.5,0.8,2.1,1.3c0.6,0.5,1.2,1.1,1.8,1.6l-2.3,2.5
			c-0.9-1-2-1.8-3.1-2.5c-1.1-0.7-2.5-1-4.1-1c-1.2,0-2.3,0.2-3.3,0.7c-1,0.5-1.9,1.1-2.7,2c-0.8,0.8-1.4,1.8-1.8,2.9
			s-0.6,2.3-0.6,3.6c0,1.3,0.2,2.5,0.7,3.6c0.4,1.1,1,2.1,1.8,2.9c0.8,0.8,1.7,1.5,2.7,2s2.2,0.7,3.4,0.7c1.5,0,2.9-0.3,4-1
			c1.2-0.7,2.2-1.5,3.2-2.5l2.2,2.1C1393.6,386.6,1392.2,387.7,1390.7,388.5z"/>
		<path class="st1" d="M1422,382.2c-0.6,1.5-1.5,2.8-2.6,3.9c-1.1,1.1-2.4,2-3.9,2.7s-3.2,1-4.9,1c-1.8,0-3.4-0.3-4.9-1
			c-1.5-0.7-2.8-1.5-3.9-2.6c-1.1-1.1-1.9-2.4-2.6-3.9c-0.6-1.5-0.9-3.1-0.9-4.7c0-1.7,0.3-3.3,0.9-4.8c0.6-1.5,1.5-2.8,2.6-3.9
			c1.1-1.1,2.4-2,3.9-2.7c1.5-0.7,3.2-1,4.9-1c1.8,0,3.4,0.3,4.9,1c1.5,0.7,2.8,1.5,3.9,2.6c1.1,1.1,1.9,2.4,2.6,3.9
			c0.6,1.5,0.9,3.1,0.9,4.7S1422.7,380.7,1422,382.2z M1418.7,373.9c-0.4-1.1-1.1-2.1-1.8-2.9s-1.7-1.5-2.8-2
			c-1.1-0.5-2.2-0.7-3.5-0.7c-1.3,0-2.4,0.2-3.5,0.7c-1.1,0.5-2,1.1-2.7,2c-0.7,0.8-1.3,1.8-1.8,2.9s-0.6,2.3-0.6,3.6
			c0,1.3,0.2,2.5,0.7,3.6c0.4,1.1,1,2.1,1.8,2.9s1.7,1.5,2.8,2c1.1,0.5,2.2,0.7,3.5,0.7c1.3,0,2.4-0.2,3.5-0.7
			c1.1-0.5,2-1.1,2.7-1.9c0.8-0.8,1.4-1.8,1.8-2.9c0.4-1.1,0.6-2.3,0.6-3.6C1419.4,376.3,1419.2,375.1,1418.7,373.9z"/>
		<path class="st1" d="M1432.8,389.3h-3.5v-23.6h3.5v6.2c0.4-1,1-1.9,1.6-2.7c0.6-0.8,1.4-1.5,2.2-2.1c0.8-0.6,1.7-1,2.7-1.3
			c1-0.3,2-0.4,3.1-0.4v3.8h-0.3c-1.3,0-2.5,0.2-3.6,0.7s-2.1,1.1-3,2.1c-0.9,0.9-1.5,2-2,3.4c-0.5,1.4-0.7,2.9-0.7,4.7V389.3z"/>
		<path class="st1" d="M1451.3,389.3h-3.5v-23.6h3.5v6.2c0.4-1,1-1.9,1.6-2.7c0.6-0.8,1.4-1.5,2.2-2.1c0.8-0.6,1.7-1,2.7-1.3
			c1-0.3,2-0.4,3.1-0.4v3.8h-0.3c-1.3,0-2.5,0.2-3.6,0.7s-2.1,1.1-3,2.1c-0.9,0.9-1.5,2-2,3.4c-0.5,1.4-0.7,2.9-0.7,4.7V389.3z"/>
		<path class="st1" d="M1468.3,382.2c0.5,1,1.1,1.8,1.9,2.5c0.8,0.7,1.6,1.2,2.6,1.5c0.9,0.4,1.9,0.5,3,0.5c1.6,0,3-0.3,4.2-0.9
			s2.2-1.4,3.2-2.4l2.2,2c-1.2,1.3-2.5,2.4-4.1,3.2c-1.5,0.8-3.4,1.2-5.7,1.2c-1.6,0-3.1-0.3-4.6-0.9s-2.7-1.4-3.7-2.5
			c-1.1-1.1-1.9-2.4-2.6-3.9c-0.6-1.5-0.9-3.2-0.9-5c0-1.7,0.3-3.3,0.8-4.8s1.3-2.8,2.3-3.9s2.2-2,3.6-2.6s2.9-1,4.5-1
			c1.7,0,3.3,0.3,4.7,1c1.4,0.7,2.5,1.5,3.5,2.7c0.9,1.1,1.7,2.4,2.1,4c0.5,1.5,0.7,3.1,0.7,4.9c0,0.2,0,0.3,0,0.5
			c0,0.2,0,0.4,0,0.6h-18.6C1467.6,380.1,1467.9,381.2,1468.3,382.2z M1482.5,376.2c-0.1-1.1-0.3-2.1-0.7-3.1
			c-0.3-1-0.8-1.8-1.4-2.6c-0.6-0.7-1.4-1.3-2.3-1.8c-0.9-0.4-1.9-0.7-3.1-0.7c-1,0-2,0.2-2.9,0.6c-0.9,0.4-1.6,1-2.3,1.7
			c-0.7,0.7-1.2,1.6-1.6,2.5c-0.4,1-0.7,2-0.8,3.2H1482.5z"/>
		<path class="st1" d="M1514.5,382.2c-0.6,1.5-1.5,2.8-2.6,3.9c-1.1,1.1-2.4,2-3.9,2.7s-3.2,1-4.9,1c-1.8,0-3.4-0.3-4.9-1
			c-1.5-0.7-2.8-1.5-3.9-2.6c-1.1-1.1-1.9-2.4-2.6-3.9c-0.6-1.5-0.9-3.1-0.9-4.7c0-1.7,0.3-3.3,0.9-4.8c0.6-1.5,1.5-2.8,2.6-3.9
			c1.1-1.1,2.4-2,3.9-2.7c1.5-0.7,3.2-1,4.9-1c1.8,0,3.4,0.3,4.9,1c1.5,0.7,2.8,1.5,3.9,2.6c1.1,1.1,1.9,2.4,2.6,3.9
			c0.6,1.5,0.9,3.1,0.9,4.7S1515.1,380.7,1514.5,382.2z M1511.1,373.9c-0.4-1.1-1.1-2.1-1.8-2.9s-1.7-1.5-2.8-2
			c-1.1-0.5-2.2-0.7-3.5-0.7c-1.3,0-2.4,0.2-3.5,0.7c-1.1,0.5-2,1.1-2.7,2c-0.7,0.8-1.3,1.8-1.8,2.9s-0.6,2.3-0.6,3.6
			c0,1.3,0.2,2.5,0.7,3.6c0.4,1.1,1,2.1,1.8,2.9s1.7,1.5,2.8,2c1.1,0.5,2.2,0.7,3.5,0.7c1.3,0,2.4-0.2,3.5-0.7
			c1.1-0.5,2-1.1,2.7-1.9c0.8-0.8,1.4-1.8,1.8-2.9c0.4-1.1,0.6-2.3,0.6-3.6C1511.8,376.3,1511.6,375.1,1511.1,373.9z"/>
	</g>
	<g>
		<path class="st1" d="M334.2,446c0.5,1,1.1,1.8,1.9,2.5c0.8,0.7,1.6,1.2,2.6,1.5c0.9,0.4,1.9,0.5,3,0.5c1.6,0,3-0.3,4.2-0.9
			c1.2-0.6,2.2-1.4,3.2-2.4l2.2,2c-1.2,1.3-2.5,2.4-4.1,3.2c-1.5,0.8-3.4,1.2-5.7,1.2c-1.6,0-3.1-0.3-4.6-0.9
			c-1.4-0.6-2.7-1.4-3.7-2.5c-1.1-1.1-1.9-2.4-2.6-3.9c-0.6-1.5-0.9-3.2-0.9-5c0-1.7,0.3-3.3,0.8-4.8c0.6-1.5,1.3-2.8,2.3-3.9
			s2.2-2,3.6-2.6c1.4-0.6,2.9-1,4.5-1c1.7,0,3.3,0.3,4.6,1c1.4,0.7,2.5,1.5,3.5,2.7c0.9,1.1,1.7,2.4,2.1,4c0.5,1.5,0.7,3.1,0.7,4.9
			c0,0.2,0,0.3,0,0.5c0,0.2,0,0.4,0,0.6h-18.6C333.4,443.9,333.7,445,334.2,446z M348.4,440c-0.1-1.1-0.3-2.1-0.7-3.1
			c-0.3-1-0.8-1.8-1.4-2.6c-0.6-0.7-1.4-1.3-2.3-1.8c-0.9-0.4-1.9-0.7-3.1-0.7c-1,0-2,0.2-2.9,0.6c-0.9,0.4-1.6,1-2.3,1.7
			c-0.7,0.7-1.2,1.6-1.6,2.5c-0.4,1-0.7,2-0.8,3.2H348.4z"/>
		<path class="st1" d="M358.5,453.1v-33.3h3.5v33.3H358.5z"/>
		<path class="st1" d="M373.2,446c0.5,1,1.1,1.8,1.9,2.5c0.8,0.7,1.6,1.2,2.6,1.5c0.9,0.4,1.9,0.5,3,0.5c1.6,0,3-0.3,4.2-0.9
			c1.2-0.6,2.2-1.4,3.2-2.4l2.2,2c-1.2,1.3-2.5,2.4-4.1,3.2c-1.5,0.8-3.4,1.2-5.7,1.2c-1.6,0-3.1-0.3-4.6-0.9
			c-1.4-0.6-2.7-1.4-3.7-2.5c-1.1-1.1-1.9-2.4-2.6-3.9c-0.6-1.5-0.9-3.2-0.9-5c0-1.7,0.3-3.3,0.8-4.8c0.6-1.5,1.3-2.8,2.3-3.9
			s2.2-2,3.6-2.6c1.4-0.6,2.9-1,4.5-1c1.7,0,3.3,0.3,4.6,1c1.4,0.7,2.5,1.5,3.5,2.7c0.9,1.1,1.7,2.4,2.1,4c0.5,1.5,0.7,3.1,0.7,4.9
			c0,0.2,0,0.3,0,0.5c0,0.2,0,0.4,0,0.6h-18.6C372.4,443.9,372.7,445,373.2,446z M387.4,440c-0.1-1.1-0.3-2.1-0.7-3.1
			c-0.3-1-0.8-1.8-1.4-2.6c-0.6-0.7-1.4-1.3-2.3-1.8c-0.9-0.4-1.9-0.7-3.1-0.7c-1,0-2,0.2-2.9,0.6c-0.9,0.4-1.6,1-2.3,1.7
			c-0.7,0.7-1.2,1.6-1.6,2.5c-0.4,1-0.7,2-0.8,3.2H387.4z"/>
		<path class="st1" d="M413.3,452.4c-1.5,0.9-3.4,1.3-5.6,1.3c-1.7,0-3.3-0.3-4.8-1s-2.8-1.5-3.8-2.6c-1.1-1.1-1.9-2.4-2.5-3.9
			c-0.6-1.5-0.9-3.1-0.9-4.7c0-1.7,0.3-3.3,0.9-4.8c0.6-1.5,1.5-2.8,2.5-3.9c1.1-1.1,2.4-2,3.8-2.7c1.5-0.7,3.1-1,4.8-1
			c1.1,0,2.1,0.1,3.1,0.3c0.9,0.2,1.7,0.5,2.5,0.9c0.8,0.4,1.5,0.8,2.1,1.3c0.6,0.5,1.2,1.1,1.8,1.6l-2.3,2.5c-0.9-1-2-1.8-3.1-2.5
			c-1.1-0.7-2.5-1-4.1-1c-1.2,0-2.3,0.2-3.3,0.7c-1,0.5-1.9,1.1-2.7,2c-0.8,0.8-1.4,1.8-1.8,2.9c-0.4,1.1-0.6,2.3-0.6,3.6
			c0,1.3,0.2,2.5,0.7,3.6c0.4,1.1,1,2.1,1.8,2.9c0.8,0.8,1.7,1.5,2.7,2c1,0.5,2.2,0.7,3.4,0.7c1.5,0,2.9-0.3,4-1
			c1.2-0.7,2.2-1.5,3.2-2.5l2.2,2.1C416.2,450.4,414.8,451.5,413.3,452.4z"/>
		<path class="st1" d="M427.9,446.4c0,1.5,0.4,2.5,1.1,3.1c0.7,0.6,1.7,0.9,2.9,0.9c0.6,0,1.2-0.1,1.7-0.2c0.5-0.1,1.1-0.3,1.7-0.6
			v3c-0.6,0.3-1.3,0.6-1.9,0.8c-0.7,0.2-1.5,0.3-2.3,0.3c-0.9,0-1.8-0.1-2.6-0.4c-0.8-0.2-1.5-0.6-2.1-1.2s-1.1-1.2-1.4-2.1
			c-0.3-0.9-0.5-1.9-0.5-3.1v-14.2h-3.3v-3.1h3.3v-7.1h3.5v7.1h7.5v3.1h-7.5V446.4z"/>
		<path class="st1" d="M445.1,453.1h-3.5v-23.6h3.5v6.2c0.4-1,1-1.9,1.6-2.7c0.6-0.8,1.4-1.5,2.2-2.1c0.8-0.6,1.7-1,2.7-1.3
			c1-0.3,2-0.4,3.1-0.4v3.8h-0.3c-1.3,0-2.5,0.2-3.6,0.7s-2.1,1.1-3,2.1c-0.9,0.9-1.5,2-2,3.4c-0.5,1.4-0.7,2.9-0.7,4.7V453.1z"/>
		<path class="st1" d="M482.2,446.1c-0.6,1.5-1.5,2.8-2.6,3.9c-1.1,1.1-2.4,2-3.9,2.7c-1.5,0.7-3.2,1-4.9,1s-3.4-0.3-4.9-1
			c-1.5-0.7-2.8-1.5-3.9-2.6c-1.1-1.1-1.9-2.4-2.6-3.9c-0.6-1.5-0.9-3.1-0.9-4.7c0-1.7,0.3-3.3,0.9-4.8c0.6-1.5,1.5-2.8,2.6-3.9
			c1.1-1.1,2.4-2,3.9-2.7c1.5-0.7,3.2-1,4.9-1c1.8,0,3.4,0.3,4.9,1c1.5,0.7,2.8,1.5,3.9,2.6c1.1,1.1,1.9,2.4,2.6,3.9
			c0.6,1.5,0.9,3.1,0.9,4.7S482.8,444.6,482.2,446.1z M478.9,437.8c-0.4-1.1-1.1-2.1-1.8-2.9c-0.8-0.8-1.7-1.5-2.8-2
			c-1.1-0.5-2.2-0.7-3.5-0.7c-1.3,0-2.4,0.2-3.5,0.7c-1.1,0.5-2,1.1-2.7,2c-0.7,0.8-1.3,1.8-1.8,2.9c-0.4,1.1-0.6,2.3-0.6,3.6
			c0,1.3,0.2,2.5,0.7,3.6c0.4,1.1,1,2.1,1.8,2.9s1.7,1.5,2.8,2c1.1,0.5,2.2,0.7,3.5,0.7c1.3,0,2.4-0.2,3.5-0.7
			c1.1-0.5,2-1.1,2.7-1.9c0.8-0.8,1.4-1.8,1.8-2.9c0.4-1.1,0.6-2.3,0.6-3.6C479.6,440.1,479.3,438.9,478.9,437.8z M469.5,426
			l4.3-6.6l3.6,1.7l-5.2,4.9H469.5z"/>
		<path class="st1" d="M493,453.1h-3.5v-23.6h3.5v4.1c0.8-1.3,1.8-2.4,3.1-3.3s2.9-1.3,5-1.3c1.4,0,2.7,0.2,3.8,0.7
			c1.1,0.5,2.1,1.1,2.8,1.9c0.8,0.8,1.4,1.8,1.8,3c0.4,1.2,0.6,2.4,0.6,3.8v14.6h-3.5v-13.8c0-2.2-0.6-3.9-1.7-5.2
			c-1.1-1.3-2.7-1.9-4.8-1.9c-1,0-1.9,0.2-2.8,0.5c-0.9,0.3-1.6,0.9-2.3,1.5c-0.6,0.7-1.1,1.4-1.5,2.3c-0.3,0.9-0.5,1.9-0.5,3V453.1
			z"/>
		<path class="st1" d="M517.7,424.4v-3.9h4v3.9H517.7z M517.9,453.1v-23.6h3.5v23.6H517.9z"/>
		<path class="st1" d="M545.8,452.4c-1.5,0.9-3.4,1.3-5.6,1.3c-1.7,0-3.3-0.3-4.8-1s-2.8-1.5-3.8-2.6c-1.1-1.1-1.9-2.4-2.5-3.9
			c-0.6-1.5-0.9-3.1-0.9-4.7c0-1.7,0.3-3.3,0.9-4.8c0.6-1.5,1.5-2.8,2.5-3.9c1.1-1.1,2.4-2,3.8-2.7c1.5-0.7,3.1-1,4.8-1
			c1.1,0,2.1,0.1,3.1,0.3c0.9,0.2,1.7,0.5,2.5,0.9c0.8,0.4,1.5,0.8,2.1,1.3c0.6,0.5,1.2,1.1,1.8,1.6l-2.3,2.5c-0.9-1-2-1.8-3.1-2.5
			c-1.1-0.7-2.5-1-4.1-1c-1.2,0-2.3,0.2-3.3,0.7c-1,0.5-1.9,1.1-2.7,2c-0.8,0.8-1.4,1.8-1.8,2.9c-0.4,1.1-0.6,2.3-0.6,3.6
			c0,1.3,0.2,2.5,0.7,3.6c0.4,1.1,1,2.1,1.8,2.9c0.8,0.8,1.7,1.5,2.7,2c1,0.5,2.2,0.7,3.4,0.7c1.5,0,2.9-0.3,4-1
			c1.2-0.7,2.2-1.5,3.2-2.5l2.2,2.1C548.6,450.4,547.3,451.5,545.8,452.4z"/>
		<path class="st1" d="M577.1,446.1c-0.6,1.5-1.5,2.8-2.6,3.9c-1.1,1.1-2.4,2-3.9,2.7c-1.5,0.7-3.2,1-4.9,1s-3.4-0.3-4.9-1
			c-1.5-0.7-2.8-1.5-3.9-2.6c-1.1-1.1-1.9-2.4-2.6-3.9c-0.6-1.5-0.9-3.1-0.9-4.7c0-1.7,0.3-3.3,0.9-4.8c0.6-1.5,1.5-2.8,2.6-3.9
			c1.1-1.1,2.4-2,3.9-2.7c1.5-0.7,3.2-1,4.9-1c1.8,0,3.4,0.3,4.9,1c1.5,0.7,2.8,1.5,3.9,2.6c1.1,1.1,1.9,2.4,2.6,3.9
			c0.6,1.5,0.9,3.1,0.9,4.7S577.7,444.6,577.1,446.1z M573.8,437.8c-0.4-1.1-1.1-2.1-1.8-2.9c-0.8-0.8-1.7-1.5-2.8-2
			c-1.1-0.5-2.2-0.7-3.5-0.7c-1.3,0-2.4,0.2-3.5,0.7c-1.1,0.5-2,1.1-2.7,2c-0.7,0.8-1.3,1.8-1.8,2.9c-0.4,1.1-0.6,2.3-0.6,3.6
			c0,1.3,0.2,2.5,0.7,3.6c0.4,1.1,1,2.1,1.8,2.9s1.7,1.5,2.8,2c1.1,0.5,2.2,0.7,3.5,0.7c1.3,0,2.4-0.2,3.5-0.7
			c1.1-0.5,2-1.1,2.7-1.9c0.8-0.8,1.4-1.8,1.8-2.9c0.4-1.1,0.6-2.3,0.6-3.6C574.4,440.1,574.2,438.9,573.8,437.8z"/>
		<path class="st1" d="M617,453.1v-4.7c-0.5,0.7-1,1.4-1.6,2c-0.6,0.6-1.3,1.2-2,1.7c-0.7,0.5-1.5,0.9-2.4,1.1
			c-0.9,0.3-1.9,0.4-3,0.4c-1.4,0-2.8-0.3-4.1-0.8c-1.3-0.5-2.5-1.3-3.6-2.4c-1.1-1-1.9-2.3-2.6-3.9c-0.6-1.5-1-3.3-1-5.2
			c0-1.9,0.3-3.7,1-5.2c0.6-1.5,1.5-2.8,2.6-3.9c1.1-1,2.3-1.9,3.6-2.4c1.3-0.6,2.7-0.8,4.1-0.8c1.1,0,2.1,0.1,3,0.4
			c0.9,0.3,1.7,0.6,2.5,1.1c0.7,0.5,1.4,1,2,1.6c0.6,0.6,1.1,1.2,1.6,1.9v-14.2h3.5v33.3H617z M616.4,437.6
			c-0.5-1.1-1.1-2.1-1.9-2.9c-0.8-0.8-1.7-1.4-2.7-1.8c-1-0.4-2.1-0.7-3.2-0.7c-1.2,0-2.2,0.2-3.2,0.6c-1,0.4-1.9,1-2.6,1.8
			c-0.7,0.8-1.3,1.7-1.8,2.9c-0.4,1.1-0.7,2.4-0.7,3.8c0,1.4,0.2,2.6,0.7,3.8c0.4,1.1,1,2.1,1.8,2.9c0.8,0.8,1.6,1.4,2.6,1.8
			c1,0.4,2.1,0.6,3.2,0.6c1.1,0,2.1-0.2,3.2-0.7c1-0.4,1.9-1.1,2.7-1.8c0.8-0.8,1.4-1.7,1.9-2.9c0.5-1.1,0.7-2.4,0.7-3.7
			S616.9,438.7,616.4,437.6z"/>
		<path class="st1" d="M631.4,446c0.5,1,1.1,1.8,1.9,2.5c0.8,0.7,1.6,1.2,2.6,1.5c0.9,0.4,1.9,0.5,3,0.5c1.6,0,3-0.3,4.2-0.9
			c1.2-0.6,2.2-1.4,3.2-2.4l2.2,2c-1.2,1.3-2.5,2.4-4.1,3.2c-1.5,0.8-3.4,1.2-5.7,1.2c-1.6,0-3.1-0.3-4.6-0.9
			c-1.4-0.6-2.7-1.4-3.7-2.5c-1.1-1.1-1.9-2.4-2.6-3.9c-0.6-1.5-0.9-3.2-0.9-5c0-1.7,0.3-3.3,0.8-4.8c0.6-1.5,1.3-2.8,2.3-3.9
			s2.2-2,3.6-2.6c1.4-0.6,2.9-1,4.5-1c1.7,0,3.3,0.3,4.6,1c1.4,0.7,2.5,1.5,3.5,2.7c0.9,1.1,1.7,2.4,2.1,4c0.5,1.5,0.7,3.1,0.7,4.9
			c0,0.2,0,0.3,0,0.5c0,0.2,0,0.4,0,0.6h-18.6C630.6,443.9,630.9,445,631.4,446z M645.5,440c-0.1-1.1-0.3-2.1-0.7-3.1
			c-0.3-1-0.8-1.8-1.4-2.6c-0.6-0.7-1.4-1.3-2.3-1.8c-0.9-0.4-1.9-0.7-3.1-0.7c-1,0-2,0.2-2.9,0.6c-0.9,0.4-1.6,1-2.3,1.7
			c-0.7,0.7-1.2,1.6-1.6,2.5c-0.4,1-0.7,2-0.8,3.2H645.5z"/>
		<path class="st1" d="M655.6,453.1v-33.3h3.5v33.3H655.6z"/>
		<path class="st1" d="M706.3,450.3c-0.9,0.7-1.9,1.3-2.9,1.8c-1,0.5-2.1,0.9-3.3,1.1c-1.2,0.3-2.5,0.4-4,0.4
			c-2.3,0-4.4-0.4-6.4-1.3c-1.9-0.9-3.6-2-5.1-3.5c-1.4-1.5-2.5-3.2-3.4-5.2c-0.8-2-1.2-4.2-1.2-6.5c0-2.3,0.4-4.4,1.2-6.4
			c0.8-2,1.9-3.8,3.4-5.3c1.4-1.5,3.1-2.7,5.1-3.6c2-0.9,4.1-1.3,6.5-1.3c1.5,0,2.8,0.1,3.9,0.4c1.2,0.2,2.3,0.6,3.3,1
			c1,0.4,1.9,1,2.8,1.6c0.9,0.6,1.7,1.3,2.5,2.1l-2.5,2.6c-1.4-1.3-2.8-2.3-4.4-3.1c-1.6-0.8-3.4-1.2-5.6-1.2c-1.8,0-3.4,0.3-4.9,1
			c-1.5,0.7-2.8,1.6-3.9,2.8c-1.1,1.2-2,2.6-2.6,4.2c-0.6,1.6-0.9,3.3-0.9,5.2c0,1.9,0.3,3.6,0.9,5.2c0.6,1.6,1.5,3,2.6,4.2
			c1.1,1.2,2.4,2.1,3.9,2.8c1.5,0.7,3.1,1,4.9,1c2.2,0,4.1-0.4,5.7-1.2c1.6-0.8,3.1-1.9,4.6-3.4l2.4,2.3
			C708.1,448.9,707.2,449.7,706.3,450.3z"/>
		<path class="st1" d="M744.9,453.1H741l-3.7-8.4h-17.4l-3.8,8.4h-3.7L727,421h3.4L744.9,453.1z M728.6,425.2l-7.3,16.3h14.5
			L728.6,425.2z"/>
		<path class="st1" d="M774.2,450.3c-0.9,0.7-1.9,1.3-2.9,1.8c-1,0.5-2.1,0.9-3.3,1.1c-1.2,0.3-2.5,0.4-4,0.4
			c-2.3,0-4.4-0.4-6.4-1.3c-1.9-0.9-3.6-2-5.1-3.5c-1.4-1.5-2.5-3.2-3.4-5.2c-0.8-2-1.2-4.2-1.2-6.5c0-2.3,0.4-4.4,1.2-6.4
			c0.8-2,1.9-3.8,3.4-5.3c1.4-1.5,3.1-2.7,5.1-3.6c2-0.9,4.1-1.3,6.5-1.3c1.5,0,2.8,0.1,3.9,0.4c1.2,0.2,2.3,0.6,3.3,1
			c1,0.4,1.9,1,2.8,1.6c0.9,0.6,1.7,1.3,2.5,2.1l-2.5,2.6c-1.4-1.3-2.8-2.3-4.4-3.1c-1.6-0.8-3.4-1.2-5.6-1.2c-1.8,0-3.4,0.3-4.9,1
			c-1.5,0.7-2.8,1.6-3.9,2.8c-1.1,1.2-2,2.6-2.6,4.2c-0.6,1.6-0.9,3.3-0.9,5.2c0,1.9,0.3,3.6,0.9,5.2c0.6,1.6,1.5,3,2.6,4.2
			c1.1,1.2,2.4,2.1,3.9,2.8c1.5,0.7,3.1,1,4.9,1c2.2,0,4.1-0.4,5.7-1.2c1.6-0.8,3.1-1.9,4.6-3.4l2.4,2.3
			C775.9,448.9,775.1,449.7,774.2,450.3z"/>
		<path class="st1" d="M786.9,421.2v31.9h-3.6v-31.9H786.9z"/>
		<path class="st1" d="M812.4,446c0.5,1,1.1,1.8,1.9,2.5c0.8,0.7,1.6,1.2,2.6,1.5c0.9,0.4,1.9,0.5,3,0.5c1.6,0,3-0.3,4.2-0.9
			c1.2-0.6,2.2-1.4,3.2-2.4l2.2,2c-1.2,1.3-2.5,2.4-4.1,3.2c-1.5,0.8-3.4,1.2-5.7,1.2c-1.6,0-3.1-0.3-4.6-0.9
			c-1.4-0.6-2.7-1.4-3.7-2.5c-1.1-1.1-1.9-2.4-2.6-3.9c-0.6-1.5-0.9-3.2-0.9-5c0-1.7,0.3-3.3,0.8-4.8c0.6-1.5,1.3-2.8,2.3-3.9
			s2.2-2,3.6-2.6c1.4-0.6,2.9-1,4.5-1c1.7,0,3.3,0.3,4.6,1c1.4,0.7,2.5,1.5,3.5,2.7c0.9,1.1,1.7,2.4,2.1,4c0.5,1.5,0.7,3.1,0.7,4.9
			c0,0.2,0,0.3,0,0.5c0,0.2,0,0.4,0,0.6h-18.6C811.6,443.9,811.9,445,812.4,446z M826.6,440c-0.1-1.1-0.3-2.1-0.7-3.1
			c-0.3-1-0.8-1.8-1.4-2.6c-0.6-0.7-1.4-1.3-2.3-1.8c-0.9-0.4-1.9-0.7-3.1-0.7c-1,0-2,0.2-2.9,0.6c-0.9,0.4-1.6,1-2.3,1.7
			c-0.7,0.7-1.2,1.6-1.6,2.5c-0.4,1-0.7,2-0.8,3.2H826.6z"/>
		<path class="st1" d="M839.9,453.1h-3.5v-23.6h3.5v4.1c0.8-1.3,1.8-2.4,3.1-3.3s2.9-1.3,5-1.3c1.4,0,2.7,0.2,3.8,0.7
			c1.1,0.5,2.1,1.1,2.8,1.9c0.8,0.8,1.4,1.8,1.8,3c0.4,1.2,0.6,2.4,0.6,3.8v14.6h-3.5v-13.8c0-2.2-0.6-3.9-1.7-5.2
			c-1.1-1.3-2.7-1.9-4.8-1.9c-1,0-1.9,0.2-2.8,0.5c-0.9,0.3-1.6,0.9-2.3,1.5c-0.6,0.7-1.1,1.4-1.5,2.3c-0.3,0.9-0.5,1.9-0.5,3V453.1
			z"/>
		<path class="st1" d="M881.2,446c0.5,1,1.1,1.8,1.9,2.5c0.8,0.7,1.6,1.2,2.6,1.5c0.9,0.4,1.9,0.5,3,0.5c1.6,0,3-0.3,4.2-0.9
			c1.2-0.6,2.2-1.4,3.2-2.4l2.2,2c-1.2,1.3-2.5,2.4-4.1,3.2c-1.5,0.8-3.4,1.2-5.7,1.2c-1.6,0-3.1-0.3-4.6-0.9
			c-1.4-0.6-2.7-1.4-3.7-2.5c-1.1-1.1-1.9-2.4-2.6-3.9c-0.6-1.5-0.9-3.2-0.9-5c0-1.7,0.3-3.3,0.8-4.8c0.6-1.5,1.3-2.8,2.3-3.9
			s2.2-2,3.6-2.6c1.4-0.6,2.9-1,4.5-1c1.7,0,3.3,0.3,4.6,1c1.4,0.7,2.5,1.5,3.5,2.7c0.9,1.1,1.7,2.4,2.1,4c0.5,1.5,0.7,3.1,0.7,4.9
			c0,0.2,0,0.3,0,0.5c0,0.2,0,0.4,0,0.6h-18.6C880.4,443.9,880.7,445,881.2,446z M895.4,440c-0.1-1.1-0.3-2.1-0.7-3.1
			c-0.3-1-0.8-1.8-1.4-2.6c-0.6-0.7-1.4-1.3-2.3-1.8c-0.9-0.4-1.9-0.7-3.1-0.7c-1,0-2,0.2-2.9,0.6c-0.9,0.4-1.6,1-2.3,1.7
			c-0.7,0.7-1.2,1.6-1.6,2.5c-0.4,1-0.7,2-0.8,3.2H895.4z"/>
		<path class="st1" d="M905.4,453.1v-33.3h3.5v33.3H905.4z"/>
		<path class="st1" d="M949.7,460.4v-12c-0.5,0.7-1,1.4-1.6,2c-0.6,0.6-1.3,1.2-2,1.7c-0.7,0.5-1.5,0.9-2.4,1.1
			c-0.9,0.3-1.9,0.4-3,0.4c-1.4,0-2.8-0.3-4.1-0.8c-1.3-0.5-2.5-1.3-3.6-2.4c-1.1-1-1.9-2.3-2.6-3.9c-0.6-1.5-1-3.3-1-5.2
			c0-1.9,0.3-3.7,1-5.2c0.6-1.5,1.5-2.8,2.6-3.9c1.1-1,2.3-1.9,3.6-2.4c1.3-0.6,2.7-0.8,4.1-0.8c1.1,0,2.1,0.1,3,0.4
			c0.9,0.3,1.7,0.6,2.5,1.1c0.7,0.5,1.4,1,2,1.6c0.6,0.6,1.1,1.2,1.6,1.9v-4.5h3.5v30.9H949.7z M949.1,437.6
			c-0.5-1.1-1.1-2.1-1.9-2.9c-0.8-0.8-1.7-1.4-2.7-1.8c-1-0.4-2.1-0.7-3.2-0.7c-1.2,0-2.2,0.2-3.2,0.6c-1,0.4-1.9,1-2.6,1.8
			c-0.7,0.8-1.3,1.7-1.8,2.9c-0.4,1.1-0.7,2.4-0.7,3.8c0,1.4,0.2,2.6,0.7,3.8c0.4,1.1,1,2.1,1.8,2.9c0.8,0.8,1.6,1.4,2.6,1.8
			c1,0.4,2.1,0.6,3.2,0.6c1.1,0,2.1-0.2,3.2-0.7c1-0.4,1.9-1.1,2.7-1.8c0.8-0.8,1.4-1.7,1.9-2.9c0.5-1.1,0.7-2.4,0.7-3.7
			S949.6,438.7,949.1,437.6z"/>
		<path class="st1" d="M977.8,429.5h3.5v23.6h-3.5V449c-0.8,1.3-1.8,2.4-3.1,3.3s-2.9,1.3-5,1.3c-1.4,0-2.7-0.2-3.8-0.7
			c-1.1-0.5-2.1-1.1-2.8-1.9s-1.4-1.8-1.8-3c-0.4-1.2-0.6-2.4-0.6-3.8v-14.6h3.5v13.8c0,2.2,0.6,3.9,1.7,5.2
			c1.1,1.3,2.7,1.9,4.8,1.9c1,0,1.9-0.2,2.8-0.5c0.9-0.3,1.6-0.9,2.2-1.5c0.6-0.7,1.1-1.4,1.5-2.3c0.4-0.9,0.5-1.9,0.5-3V429.5z"/>
		<path class="st1" d="M992.2,446c0.5,1,1.1,1.8,1.9,2.5c0.8,0.7,1.6,1.2,2.6,1.5c0.9,0.4,1.9,0.5,3,0.5c1.6,0,3-0.3,4.2-0.9
			s2.2-1.4,3.2-2.4l2.2,2c-1.2,1.3-2.5,2.4-4.1,3.2c-1.5,0.8-3.4,1.2-5.7,1.2c-1.6,0-3.1-0.3-4.6-0.9s-2.7-1.4-3.7-2.5
			c-1.1-1.1-1.9-2.4-2.6-3.9c-0.6-1.5-0.9-3.2-0.9-5c0-1.7,0.3-3.3,0.8-4.8s1.3-2.8,2.3-3.9s2.2-2,3.6-2.6s2.9-1,4.5-1
			c1.7,0,3.3,0.3,4.7,1c1.4,0.7,2.5,1.5,3.5,2.7c0.9,1.1,1.7,2.4,2.1,4c0.5,1.5,0.7,3.1,0.7,4.9c0,0.2,0,0.3,0,0.5
			c0,0.2,0,0.4,0,0.6h-18.6C991.4,443.9,991.7,445,992.2,446z M1006.4,440c-0.1-1.1-0.3-2.1-0.7-3.1c-0.3-1-0.8-1.8-1.4-2.6
			c-0.6-0.7-1.4-1.3-2.3-1.8c-0.9-0.4-1.9-0.7-3.1-0.7c-1,0-2,0.2-2.9,0.6c-0.9,0.4-1.6,1-2.3,1.7c-0.7,0.7-1.2,1.6-1.6,2.5
			c-0.4,1-0.7,2-0.8,3.2H1006.4z"/>
		<path class="st1" d="M1032.8,446c0.5,1,1.1,1.8,1.9,2.5c0.8,0.7,1.6,1.2,2.6,1.5c0.9,0.4,1.9,0.5,3,0.5c1.6,0,3-0.3,4.2-0.9
			s2.2-1.4,3.2-2.4l2.2,2c-1.2,1.3-2.5,2.4-4.1,3.2c-1.5,0.8-3.4,1.2-5.7,1.2c-1.6,0-3.1-0.3-4.6-0.9s-2.7-1.4-3.7-2.5
			c-1.1-1.1-1.9-2.4-2.6-3.9c-0.6-1.5-0.9-3.2-0.9-5c0-1.7,0.3-3.3,0.8-4.8s1.3-2.8,2.3-3.9s2.2-2,3.6-2.6s2.9-1,4.5-1
			c1.7,0,3.3,0.3,4.7,1c1.4,0.7,2.5,1.5,3.5,2.7c0.9,1.1,1.7,2.4,2.1,4c0.5,1.5,0.7,3.1,0.7,4.9c0,0.2,0,0.3,0,0.5
			c0,0.2,0,0.4,0,0.6h-18.6C1032.1,443.9,1032.4,445,1032.8,446z M1047,440c-0.1-1.1-0.3-2.1-0.7-3.1c-0.3-1-0.8-1.8-1.4-2.6
			c-0.6-0.7-1.4-1.3-2.3-1.8c-0.9-0.4-1.9-0.7-3.1-0.7c-1,0-2,0.2-2.9,0.6c-0.9,0.4-1.6,1-2.3,1.7c-0.7,0.7-1.2,1.6-1.6,2.5
			c-0.4,1-0.7,2-0.8,3.2H1047z"/>
		<path class="st1" d="M1072.3,449.5c-0.4,0.9-1,1.6-1.8,2.2c-0.7,0.6-1.6,1.1-2.6,1.4c-1,0.3-2.1,0.5-3.3,0.5
			c-1.7,0-3.4-0.3-5.2-0.9s-3.3-1.5-4.6-2.5l1.8-2.5c1.3,1,2.6,1.7,4,2.2c1.4,0.5,2.8,0.8,4.2,0.8c1.4,0,2.6-0.3,3.5-1
			c0.9-0.7,1.4-1.6,1.4-2.7v-0.1c0-0.6-0.2-1.1-0.5-1.5c-0.3-0.4-0.8-0.8-1.3-1.1c-0.5-0.3-1.2-0.6-1.9-0.8
			c-0.7-0.2-1.5-0.5-2.2-0.7c-0.9-0.3-1.8-0.6-2.8-0.9c-0.9-0.3-1.8-0.7-2.5-1.2c-0.7-0.5-1.4-1.1-1.8-1.8c-0.5-0.7-0.7-1.6-0.7-2.7
			v-0.1c0-1,0.2-1.9,0.6-2.8c0.4-0.8,1-1.6,1.7-2.1c0.7-0.6,1.6-1,2.6-1.4c1-0.3,2.1-0.5,3.2-0.5c1.5,0,2.9,0.2,4.4,0.7
			c1.5,0.5,2.8,1.1,4.1,1.9l-1.6,2.6c-1.1-0.7-2.2-1.3-3.4-1.7c-1.2-0.4-2.4-0.6-3.5-0.6c-1.4,0-2.5,0.3-3.3,1
			c-0.8,0.7-1.2,1.5-1.2,2.4v0.1c0,0.5,0.2,1,0.5,1.4s0.8,0.8,1.3,1.1c0.6,0.3,1.2,0.6,1.9,0.8c0.7,0.2,1.5,0.5,2.3,0.7
			c0.9,0.3,1.8,0.6,2.7,0.9c0.9,0.3,1.7,0.8,2.4,1.3c0.7,0.5,1.3,1.1,1.8,1.9s0.7,1.6,0.7,2.7v0.1
			C1073,447.6,1072.7,448.6,1072.3,449.5z"/>
		<path class="st1" d="M1083.8,446.4c0,1.5,0.4,2.5,1.1,3.1c0.7,0.6,1.7,0.9,2.9,0.9c0.6,0,1.2-0.1,1.7-0.2c0.5-0.1,1.1-0.3,1.7-0.6
			v3c-0.6,0.3-1.3,0.6-1.9,0.8c-0.7,0.2-1.5,0.3-2.3,0.3c-0.9,0-1.8-0.1-2.6-0.4c-0.8-0.2-1.5-0.6-2.1-1.2c-0.6-0.5-1.1-1.2-1.4-2.1
			c-0.3-0.9-0.5-1.9-0.5-3.1v-14.2h-3.3v-3.1h3.3v-7.1h3.5v7.1h7.5v3.1h-7.5V446.4z"/>
		<path class="st1" d="M1102.2,432.8c-1.1,0.3-2.3,0.7-3.4,1.3l-1-2.9c1.3-0.6,2.6-1.1,4-1.4c1.3-0.3,2.9-0.5,4.6-0.5
			c3.2,0,5.7,0.8,7.4,2.4c1.7,1.6,2.6,4,2.6,7.1v14.4h-3.4v-3.6c-0.8,1.1-1.9,2-3.3,2.8c-1.4,0.8-3.1,1.2-5.2,1.2
			c-1.1,0-2.2-0.2-3.2-0.5c-1-0.3-2-0.8-2.8-1.4c-0.8-0.6-1.5-1.4-2-2.3c-0.5-0.9-0.8-2-0.8-3.2c0-1.2,0.2-2.3,0.7-3.3
			c0.5-1,1.2-1.8,2.1-2.4s2-1.1,3.2-1.5c1.2-0.3,2.6-0.5,4.1-0.5c1.5,0,2.8,0.1,4,0.3c1.1,0.2,2.2,0.4,3.3,0.7v-0.8
			c0-2.1-0.6-3.7-1.8-4.8c-1.2-1.1-3-1.6-5.2-1.6C1104.6,432.3,1103.3,432.5,1102.2,432.8z M1101.1,442.5c-1.2,0.9-1.8,2.1-1.8,3.6
			c0,0.8,0.2,1.4,0.5,2c0.3,0.6,0.7,1.1,1.3,1.5c0.5,0.4,1.2,0.7,1.9,0.9c0.7,0.2,1.5,0.3,2.2,0.3c1.1,0,2.1-0.2,3.1-0.5
			c1-0.3,1.8-0.8,2.5-1.3c0.7-0.6,1.3-1.2,1.7-2s0.6-1.6,0.6-2.6v-2.3c-0.9-0.2-1.9-0.5-3-0.7c-1.1-0.2-2.4-0.3-3.9-0.3
			C1104,441.2,1102.3,441.6,1101.1,442.5z M1104.9,426l4.3-6.6l3.6,1.7l-5.2,4.9H1104.9z"/>
		<path class="st1" d="M1137.7,424.4v-3.9h4v3.9H1137.7z M1137.9,453.1v-23.6h3.5v23.6H1137.9z"/>
		<path class="st1" d="M1153.1,453.1h-3.5v-23.6h3.5v4.1c0.8-1.3,1.8-2.4,3.1-3.3s2.9-1.3,5-1.3c1.4,0,2.7,0.2,3.8,0.7
			s2.1,1.1,2.8,1.9c0.8,0.8,1.4,1.8,1.8,3c0.4,1.2,0.6,2.4,0.6,3.8v14.6h-3.5v-13.8c0-2.2-0.6-3.9-1.7-5.2s-2.7-1.9-4.8-1.9
			c-1,0-1.9,0.2-2.8,0.5c-0.9,0.3-1.6,0.9-2.3,1.5c-0.6,0.7-1.1,1.4-1.5,2.3c-0.3,0.9-0.5,1.9-0.5,3V453.1z"/>
		<path class="st1" d="M1193.2,449.5c-0.4,0.9-1,1.6-1.8,2.2c-0.7,0.6-1.6,1.1-2.6,1.4c-1,0.3-2.1,0.5-3.3,0.5
			c-1.7,0-3.4-0.3-5.2-0.9s-3.3-1.5-4.6-2.5l1.8-2.5c1.3,1,2.6,1.7,4,2.2c1.4,0.5,2.8,0.8,4.2,0.8c1.4,0,2.6-0.3,3.5-1
			c0.9-0.7,1.4-1.6,1.4-2.7v-0.1c0-0.6-0.2-1.1-0.5-1.5c-0.3-0.4-0.8-0.8-1.3-1.1c-0.5-0.3-1.2-0.6-1.9-0.8
			c-0.7-0.2-1.5-0.5-2.2-0.7c-0.9-0.3-1.8-0.6-2.8-0.9c-0.9-0.3-1.8-0.7-2.5-1.2c-0.7-0.5-1.4-1.1-1.8-1.8c-0.5-0.7-0.7-1.6-0.7-2.7
			v-0.1c0-1,0.2-1.9,0.6-2.8c0.4-0.8,1-1.6,1.7-2.1c0.7-0.6,1.6-1,2.6-1.4c1-0.3,2.1-0.5,3.2-0.5c1.5,0,2.9,0.2,4.4,0.7
			c1.5,0.5,2.8,1.1,4.1,1.9l-1.6,2.6c-1.1-0.7-2.2-1.3-3.4-1.7c-1.2-0.4-2.4-0.6-3.5-0.6c-1.4,0-2.5,0.3-3.3,1
			c-0.8,0.7-1.2,1.5-1.2,2.4v0.1c0,0.5,0.2,1,0.5,1.4s0.8,0.8,1.3,1.1c0.6,0.3,1.2,0.6,1.9,0.8c0.7,0.2,1.5,0.5,2.3,0.7
			c0.9,0.3,1.8,0.6,2.7,0.9c0.9,0.3,1.7,0.8,2.4,1.3c0.7,0.5,1.3,1.1,1.8,1.9s0.7,1.6,0.7,2.7v0.1
			C1193.8,447.6,1193.6,448.6,1193.2,449.5z"/>
		<path class="st1" d="M1216.5,452.4c-1.5,0.9-3.4,1.3-5.6,1.3c-1.7,0-3.3-0.3-4.8-1c-1.5-0.7-2.8-1.5-3.8-2.6
			c-1.1-1.1-1.9-2.4-2.5-3.9c-0.6-1.5-0.9-3.1-0.9-4.7c0-1.7,0.3-3.3,0.9-4.8c0.6-1.5,1.5-2.8,2.5-3.9c1.1-1.1,2.4-2,3.8-2.7
			c1.5-0.7,3.1-1,4.8-1c1.1,0,2.1,0.1,3.1,0.3c0.9,0.2,1.7,0.5,2.5,0.9c0.8,0.4,1.5,0.8,2.1,1.3c0.6,0.5,1.2,1.1,1.8,1.6l-2.3,2.5
			c-0.9-1-2-1.8-3.1-2.5c-1.1-0.7-2.5-1-4.1-1c-1.2,0-2.3,0.2-3.3,0.7c-1,0.5-1.9,1.1-2.7,2c-0.8,0.8-1.4,1.8-1.8,2.9
			s-0.6,2.3-0.6,3.6c0,1.3,0.2,2.5,0.7,3.6c0.4,1.1,1,2.1,1.8,2.9c0.8,0.8,1.7,1.5,2.7,2s2.2,0.7,3.4,0.7c1.5,0,2.9-0.3,4-1
			c1.2-0.7,2.2-1.5,3.2-2.5l2.2,2.1C1219.4,450.4,1218,451.5,1216.5,452.4z"/>
		<path class="st1" d="M1229.9,453.1h-3.5v-23.6h3.5v6.2c0.4-1,1-1.9,1.6-2.7c0.6-0.8,1.4-1.5,2.2-2.1c0.8-0.6,1.7-1,2.7-1.3
			c1-0.3,2-0.4,3.1-0.4v3.8h-0.3c-1.3,0-2.5,0.2-3.6,0.7s-2.1,1.1-3,2.1c-0.9,0.9-1.5,2-2,3.4c-0.5,1.4-0.7,2.9-0.7,4.7V453.1z"/>
		<path class="st1" d="M1244.9,424.4v-3.9h4v3.9H1244.9z M1245.1,453.1v-23.6h3.5v23.6H1245.1z"/>
		<path class="st1" d="M1261.6,446.4c0,1.5,0.4,2.5,1.1,3.1c0.7,0.6,1.7,0.9,2.9,0.9c0.6,0,1.2-0.1,1.7-0.2c0.5-0.1,1.1-0.3,1.7-0.6
			v3c-0.6,0.3-1.3,0.6-1.9,0.8c-0.7,0.2-1.5,0.3-2.3,0.3c-0.9,0-1.8-0.1-2.6-0.4c-0.8-0.2-1.5-0.6-2.1-1.2c-0.6-0.5-1.1-1.2-1.4-2.1
			c-0.3-0.9-0.5-1.9-0.5-3.1v-14.2h-3.3v-3.1h3.3v-7.1h3.5v7.1h7.5v3.1h-7.5V446.4z"/>
		<path class="st1" d="M1296.8,446.1c-0.6,1.5-1.5,2.8-2.6,3.9c-1.1,1.1-2.4,2-3.9,2.7s-3.2,1-4.9,1c-1.8,0-3.4-0.3-4.9-1
			c-1.5-0.7-2.8-1.5-3.9-2.6c-1.1-1.1-1.9-2.4-2.6-3.9c-0.6-1.5-0.9-3.1-0.9-4.7c0-1.7,0.3-3.3,0.9-4.8c0.6-1.5,1.5-2.8,2.6-3.9
			c1.1-1.1,2.4-2,3.9-2.7c1.5-0.7,3.2-1,4.9-1c1.8,0,3.4,0.3,4.9,1c1.5,0.7,2.8,1.5,3.9,2.6c1.1,1.1,1.9,2.4,2.6,3.9
			c0.6,1.5,0.9,3.1,0.9,4.7S1297.4,444.6,1296.8,446.1z M1293.4,437.8c-0.4-1.1-1.1-2.1-1.8-2.9s-1.7-1.5-2.8-2
			c-1.1-0.5-2.2-0.7-3.5-0.7c-1.3,0-2.4,0.2-3.5,0.7c-1.1,0.5-2,1.1-2.7,2c-0.7,0.8-1.3,1.8-1.8,2.9s-0.6,2.3-0.6,3.6
			c0,1.3,0.2,2.5,0.7,3.6c0.4,1.1,1,2.1,1.8,2.9s1.7,1.5,2.8,2c1.1,0.5,2.2,0.7,3.5,0.7c1.3,0,2.4-0.2,3.5-0.7
			c1.1-0.5,2-1.1,2.7-1.9c0.8-0.8,1.4-1.8,1.8-2.9c0.4-1.1,0.6-2.3,0.6-3.6C1294.1,440.1,1293.9,438.9,1293.4,437.8z"/>
		<path class="st1" d="M1333.2,449.5c-0.4,0.9-1,1.6-1.8,2.2c-0.7,0.6-1.6,1.1-2.6,1.4c-1,0.3-2.1,0.5-3.3,0.5
			c-1.7,0-3.4-0.3-5.2-0.9s-3.3-1.5-4.6-2.5l1.8-2.5c1.3,1,2.6,1.7,4,2.2c1.4,0.5,2.8,0.8,4.2,0.8c1.4,0,2.6-0.3,3.5-1
			c0.9-0.7,1.4-1.6,1.4-2.7v-0.1c0-0.6-0.2-1.1-0.5-1.5c-0.3-0.4-0.8-0.8-1.3-1.1c-0.5-0.3-1.2-0.6-1.9-0.8
			c-0.7-0.2-1.5-0.5-2.2-0.7c-0.9-0.3-1.8-0.6-2.8-0.9c-0.9-0.3-1.8-0.7-2.5-1.2c-0.7-0.5-1.4-1.1-1.8-1.8c-0.5-0.7-0.7-1.6-0.7-2.7
			v-0.1c0-1,0.2-1.9,0.6-2.8c0.4-0.8,1-1.6,1.7-2.1c0.7-0.6,1.6-1,2.6-1.4c1-0.3,2.1-0.5,3.2-0.5c1.5,0,2.9,0.2,4.4,0.7
			c1.5,0.5,2.8,1.1,4.1,1.9l-1.6,2.6c-1.1-0.7-2.2-1.3-3.4-1.7c-1.2-0.4-2.4-0.6-3.5-0.6c-1.4,0-2.5,0.3-3.3,1
			c-0.8,0.7-1.2,1.5-1.2,2.4v0.1c0,0.5,0.2,1,0.5,1.4s0.8,0.8,1.3,1.1c0.6,0.3,1.2,0.6,1.9,0.8c0.7,0.2,1.5,0.5,2.3,0.7
			c0.9,0.3,1.8,0.6,2.7,0.9c0.9,0.3,1.7,0.8,2.4,1.3c0.7,0.5,1.3,1.1,1.8,1.9s0.7,1.6,0.7,2.7v0.1
			C1333.9,447.6,1333.7,448.6,1333.2,449.5z"/>
		<path class="st1" d="M1357.2,429.5h3.5v23.6h-3.5V449c-0.8,1.3-1.8,2.4-3.1,3.3s-2.9,1.3-5,1.3c-1.4,0-2.7-0.2-3.8-0.7
			c-1.1-0.5-2.1-1.1-2.8-1.9s-1.4-1.8-1.8-3c-0.4-1.2-0.6-2.4-0.6-3.8v-14.6h3.5v13.8c0,2.2,0.6,3.9,1.7,5.2
			c1.1,1.3,2.7,1.9,4.8,1.9c1,0,1.9-0.2,2.8-0.5c0.9-0.3,1.6-0.9,2.2-1.5c0.6-0.7,1.1-1.4,1.5-2.3c0.4-0.9,0.5-1.9,0.5-3V429.5z"/>
		<path class="st1" d="M1385.7,453.1h-3.5v-33.3h3.5v13.8c0.8-1.3,1.8-2.4,3.1-3.3s2.9-1.3,5-1.3c1.4,0,2.7,0.2,3.8,0.7
			s2.1,1.1,2.8,1.9c0.8,0.8,1.4,1.8,1.8,3c0.4,1.2,0.6,2.4,0.6,3.8v14.6h-3.5v-13.8c0-2.2-0.6-3.9-1.7-5.2s-2.7-1.9-4.8-1.9
			c-1,0-1.9,0.2-2.8,0.5c-0.9,0.3-1.6,0.9-2.3,1.5c-0.6,0.7-1.1,1.4-1.5,2.3c-0.3,0.9-0.5,1.9-0.5,3V453.1z"/>
		<path class="st1" d="M1410.4,424.4v-3.9h4v3.9H1410.4z M1410.6,453.1v-23.6h3.5v23.6H1410.6z"/>
		<path class="st1" d="M1426.1,429.5v24.9c0,2.1-0.5,3.6-1.5,4.6c-1,1-2.4,1.5-4.2,1.5c-0.4,0-0.8,0-1.1,0c-0.3,0-0.7-0.1-1.1-0.2
			v-2.9c0.3,0.1,0.6,0.1,0.9,0.1c0.3,0,0.6,0,0.8,0c0.8,0,1.4-0.3,1.9-0.8c0.5-0.5,0.8-1.3,0.8-2.4v-24.9H1426.1z M1422.3,424.4
			v-3.9h4v3.9H1422.3z"/>
		<path class="st1" d="M1456.4,446.1c-0.6,1.5-1.5,2.8-2.6,3.9c-1.1,1.1-2.4,2-3.9,2.7s-3.2,1-4.9,1c-1.8,0-3.4-0.3-4.9-1
			c-1.5-0.7-2.8-1.5-3.9-2.6c-1.1-1.1-1.9-2.4-2.6-3.9c-0.6-1.5-0.9-3.1-0.9-4.7c0-1.7,0.3-3.3,0.9-4.8c0.6-1.5,1.5-2.8,2.6-3.9
			c1.1-1.1,2.4-2,3.9-2.7c1.5-0.7,3.2-1,4.9-1c1.8,0,3.4,0.3,4.9,1c1.5,0.7,2.8,1.5,3.9,2.6c1.1,1.1,1.9,2.4,2.6,3.9
			c0.6,1.5,0.9,3.1,0.9,4.7S1457,444.6,1456.4,446.1z M1453.1,437.8c-0.4-1.1-1.1-2.1-1.8-2.9s-1.7-1.5-2.8-2
			c-1.1-0.5-2.2-0.7-3.5-0.7c-1.3,0-2.4,0.2-3.5,0.7c-1.1,0.5-2,1.1-2.7,2c-0.7,0.8-1.3,1.8-1.8,2.9s-0.6,2.3-0.6,3.6
			c0,1.3,0.2,2.5,0.7,3.6c0.4,1.1,1,2.1,1.8,2.9s1.7,1.5,2.8,2c1.1,0.5,2.2,0.7,3.5,0.7c1.3,0,2.4-0.2,3.5-0.7
			c1.1-0.5,2-1.1,2.7-1.9c0.8-0.8,1.4-1.8,1.8-2.9c0.4-1.1,0.6-2.3,0.6-3.6C1453.8,440.1,1453.5,438.9,1453.1,437.8z"/>
		<path class="st1" d="M1499.5,446.1c-0.6,1.5-1.5,2.8-2.6,3.9c-1.1,1.1-2.4,2-3.9,2.7s-3.2,1-4.9,1c-1.8,0-3.4-0.3-4.9-1
			c-1.5-0.7-2.8-1.5-3.9-2.6c-1.1-1.1-1.9-2.4-2.6-3.9c-0.6-1.5-0.9-3.1-0.9-4.7c0-1.7,0.3-3.3,0.9-4.8c0.6-1.5,1.5-2.8,2.6-3.9
			c1.1-1.1,2.4-2,3.9-2.7c1.5-0.7,3.2-1,4.9-1c1.8,0,3.4,0.3,4.9,1c1.5,0.7,2.8,1.5,3.9,2.6c1.1,1.1,1.9,2.4,2.6,3.9
			c0.6,1.5,0.9,3.1,0.9,4.7S1500.2,444.6,1499.5,446.1z M1496.2,437.8c-0.4-1.1-1.1-2.1-1.8-2.9s-1.7-1.5-2.8-2
			c-1.1-0.5-2.2-0.7-3.5-0.7c-1.3,0-2.4,0.2-3.5,0.7c-1.1,0.5-2,1.1-2.7,2c-0.7,0.8-1.3,1.8-1.8,2.9s-0.6,2.3-0.6,3.6
			c0,1.3,0.2,2.5,0.7,3.6c0.4,1.1,1,2.1,1.8,2.9s1.7,1.5,2.8,2c1.1,0.5,2.2,0.7,3.5,0.7c1.3,0,2.4-0.2,3.5-0.7
			c1.1-0.5,2-1.1,2.7-1.9c0.8-0.8,1.4-1.8,1.8-2.9c0.4-1.1,0.6-2.3,0.6-3.6C1496.9,440.1,1496.7,438.9,1496.2,437.8z"/>
		<path class="st1" d="M1524,453.1h-3.5v-33.3h3.5v13.8c0.8-1.3,1.8-2.4,3.1-3.3s2.9-1.3,5-1.3c1.4,0,2.7,0.2,3.8,0.7
			s2.1,1.1,2.8,1.9c0.8,0.8,1.4,1.8,1.8,3c0.4,1.2,0.6,2.4,0.6,3.8v14.6h-3.5v-13.8c0-2.2-0.6-3.9-1.7-5.2s-2.7-1.9-4.8-1.9
			c-1,0-1.9,0.2-2.8,0.5c-0.9,0.3-1.6,0.9-2.3,1.5c-0.6,0.7-1.1,1.4-1.5,2.3c-0.3,0.9-0.5,1.9-0.5,3V453.1z"/>
		<path class="st1" d="M1548.7,424.4v-3.9h4v3.9H1548.7z M1548.9,453.1v-23.6h3.5v23.6H1548.9z"/>
		<path class="st1" d="M1564.4,429.5v24.9c0,2.1-0.5,3.6-1.5,4.6c-1,1-2.4,1.5-4.2,1.5c-0.4,0-0.8,0-1.1,0c-0.3,0-0.7-0.1-1.1-0.2
			v-2.9c0.3,0.1,0.6,0.1,0.9,0.1c0.3,0,0.6,0,0.8,0c0.8,0,1.4-0.3,1.9-0.8c0.5-0.5,0.8-1.3,0.8-2.4v-24.9H1564.4z M1560.7,424.4
			v-3.9h4v3.9H1560.7z"/>
		<path class="st1" d="M1577.3,432.8c-1.1,0.3-2.3,0.7-3.4,1.3l-1-2.9c1.3-0.6,2.6-1.1,4-1.4c1.3-0.3,2.9-0.5,4.6-0.5
			c3.2,0,5.7,0.8,7.4,2.4c1.7,1.6,2.6,4,2.6,7.1v14.4h-3.4v-3.6c-0.8,1.1-1.9,2-3.3,2.8c-1.4,0.8-3.1,1.2-5.2,1.2
			c-1.1,0-2.2-0.2-3.2-0.5c-1-0.3-2-0.8-2.8-1.4c-0.8-0.6-1.5-1.4-2-2.3c-0.5-0.9-0.8-2-0.8-3.2c0-1.2,0.2-2.3,0.7-3.3
			c0.5-1,1.2-1.8,2.1-2.4s2-1.1,3.2-1.5c1.2-0.3,2.6-0.5,4.1-0.5c1.5,0,2.8,0.1,4,0.3c1.1,0.2,2.2,0.4,3.3,0.7v-0.8
			c0-2.1-0.6-3.7-1.8-4.8c-1.2-1.1-3-1.6-5.2-1.6C1579.7,432.3,1578.4,432.5,1577.3,432.8z M1576.1,442.5c-1.2,0.9-1.8,2.1-1.8,3.6
			c0,0.8,0.2,1.4,0.5,2c0.3,0.6,0.7,1.1,1.3,1.5c0.5,0.4,1.2,0.7,1.9,0.9c0.7,0.2,1.5,0.3,2.2,0.3c1.1,0,2.1-0.2,3.1-0.5
			c1-0.3,1.8-0.8,2.5-1.3c0.7-0.6,1.3-1.2,1.7-2s0.6-1.6,0.6-2.6v-2.3c-0.9-0.2-1.9-0.5-3-0.7c-1.1-0.2-2.4-0.3-3.9-0.3
			C1579,441.2,1577.3,441.6,1576.1,442.5z"/>
		<path class="st1" d="M1598.8,434.3v-4.8h4.2v4.8H1598.8z M1598.8,453.1v-4.8h4.2v4.8H1598.8z"/>
	</g>
	<g>
		<path class="st1" d="M430.9,211.4l-11.5-17.2h-9.3v17.2h-11.9v-53.9h24.6c12.7,0,20.3,6.7,20.3,17.8v0.2c0,8.7-4.7,14.2-11.5,16.7
			l13.2,19.2H430.9z M431.2,175.9c0-5.1-3.5-7.7-9.3-7.7h-11.8v15.5h12c5.8,0,9.1-3.1,9.1-7.6V175.9z"/>
		<path class="st1" d="M453.9,211.4v-53.9h40.7V168h-28.9V179h25.4v10.5h-25.4v11.3h29.3v10.5H453.9z"/>
		<path class="st1" d="M506,211.4v-53.9h11.9v53.9H506z"/>
		<path class="st1" d="M569.2,211.4l-26.1-34.3v34.3h-11.7v-53.9h10.9l25.3,33.2v-33.2h11.7v53.9H569.2z"/>
		<path class="st1" d="M611.4,212.1c-8.2,0-16.4-2.8-22.9-8.6l7-8.4c4.9,4,9.9,6.5,16.1,6.5c4.9,0,7.8-1.9,7.8-5.1v-0.2
			c0-3-1.8-4.5-10.9-6.9c-10.9-2.8-17.9-5.8-17.9-16.5v-0.2c0-9.8,7.9-16.2,18.9-16.2c7.9,0,14.6,2.5,20,6.9l-6.2,8.9
			c-4.8-3.3-9.5-5.3-14-5.3c-4.5,0-6.9,2.1-6.9,4.7v0.2c0,3.5,2.3,4.7,11.6,7.1c10.9,2.8,17.1,6.8,17.1,16.2v0.2
			C631.2,206.1,623,212.1,611.4,212.1z"/>
		<path class="st1" d="M666.7,212.3c-15.9,0-27.6-12.2-27.6-27.7v-0.2c0-15.3,11.5-27.9,28.1-27.9c10.2,0,16.2,3.4,21.3,8.3
			l-7.5,8.7c-4.2-3.8-8.4-6.1-13.8-6.1c-9.1,0-15.6,7.5-15.6,16.8v0.2c0,9.2,6.4,16.9,15.6,16.9c6.2,0,9.9-2.5,14.2-6.3l7.5,7.6
			C683.3,208.6,677.1,212.3,666.7,212.3z"/>
		<path class="st1" d="M731,211.4l-11.5-17.2h-9.3v17.2h-11.9v-53.9h24.6c12.7,0,20.3,6.7,20.3,17.8v0.2c0,8.7-4.7,14.2-11.5,16.7
			l13.2,19.2H731z M731.3,175.9c0-5.1-3.5-7.7-9.3-7.7h-11.8v15.5h12c5.8,0,9.1-3.1,9.1-7.6V175.9z"/>
		<path class="st1" d="M754.5,211.4v-53.9h11.9v53.9H754.5z"/>
		<path class="st1" d="M800.7,195.2h-9v16.2h-11.9v-53.9h22c12.9,0,20.6,7.6,20.6,18.6v0.2C822.5,188.7,812.8,195.2,800.7,195.2z
			 M810.5,176.3c0-5.3-3.7-8.2-9.6-8.2h-9.2v16.5h9.4c5.9,0,9.4-3.5,9.4-8.2V176.3z"/>
		<path class="st1" d="M856.5,212.3c-15.9,0-27.6-12.2-27.6-27.7v-0.2c0-15.3,11.5-27.9,28.1-27.9c10.2,0,16.2,3.4,21.3,8.3
			l-7.5,8.7c-4.2-3.8-8.4-6.1-13.8-6.1c-9.1,0-15.6,7.5-15.6,16.8v0.2c0,9.2,6.4,16.9,15.6,16.9c6.2,0,9.9-2.5,14.2-6.3l7.5,7.6
			C873.1,208.6,866.9,212.3,856.5,212.3z"/>
		<path class="st1" d="M888.7,211.4v-53.9h11.9v53.9H888.7z"/>
		<path class="st1" d="M940.2,212.3c-16.6,0-28.6-12.4-28.6-27.7v-0.2c0-15.3,12.1-27.9,28.7-27.9c16.6,0,28.6,12.4,28.6,27.7v0.2
			C968.9,199.7,956.8,212.3,940.2,212.3z M956.5,184.4c0-9.2-6.8-16.9-16.3-16.9c-9.5,0-16.2,7.5-16.2,16.8v0.2
			c0,9.2,6.8,16.9,16.3,16.9s16.2-7.5,16.2-16.8V184.4z"/>
		<path class="st1" d="M1017.2,211.4l-26.1-34.3v34.3h-11.7v-53.9h10.9l25.3,33.2v-33.2h11.7v53.9H1017.2z"/>
		<path class="st1" d="M1040.3,211.4v-53.9h40.7V168H1052V179h25.4v10.5H1052v11.3h29.3v10.5H1040.3z"/>
		<path class="st1" d="M1111,212.1c-8.2,0-16.4-2.8-22.9-8.6l7-8.4c4.9,4,9.9,6.5,16.1,6.5c4.9,0,7.8-1.9,7.8-5.1v-0.2
			c0-3-1.8-4.5-10.9-6.9c-10.9-2.8-17.9-5.8-17.9-16.5v-0.2c0-9.8,7.9-16.2,18.9-16.2c7.9,0,14.6,2.5,20,6.9l-6.2,8.9
			c-4.8-3.3-9.5-5.3-14-5.3s-6.9,2.1-6.9,4.7v0.2c0,3.5,2.3,4.7,11.6,7.1c10.9,2.8,17.1,6.8,17.1,16.2v0.2
			C1130.8,206.1,1122.7,212.1,1111,212.1z"/>
		<path class="st1" d="M1204.4,211.4l-4.9-12.1h-22.8l-4.9,12.1h-12.1l23.1-54.3h10.9l23.1,54.3H1204.4z M1188,171.3l-7.2,17.5h14.3
			L1188,171.3z"/>
		<path class="st1" d="M1225.1,211.4v-53.9h11.9v43.1h26.9v10.8H1225.1z"/>
		<path class="st1" d="M1321.1,212.3c-15.9,0-27.6-12.2-27.6-27.7v-0.2c0-15.3,11.5-27.9,28.1-27.9c10.2,0,16.2,3.4,21.3,8.3
			l-7.5,8.7c-4.2-3.8-8.4-6.1-13.8-6.1c-9.1,0-15.6,7.5-15.6,16.8v0.2c0,9.2,6.4,16.9,15.6,16.9c6.2,0,9.9-2.5,14.2-6.3l7.5,7.6
			C1337.6,208.6,1331.5,212.3,1321.1,212.3z"/>
		<path class="st1" d="M1353.2,211.4v-53.9h11.9v53.9H1353.2z"/>
		<path class="st1" d="M1403.8,212.3c-15.9,0-27.6-12.2-27.6-27.7v-0.2c0-15.3,11.5-27.9,28.1-27.9c10.2,0,16.2,3.4,21.3,8.3
			l-7.5,8.7c-4.2-3.8-8.4-6.1-13.8-6.1c-9.1,0-15.6,7.5-15.6,16.8v0.2c0,9.2,6.4,16.9,15.6,16.9c6.2,0,9.9-2.5,14.2-6.3l7.5,7.6
			C1420.3,208.6,1414.2,212.3,1403.8,212.3z"/>
		<path class="st1" d="M1435.4,211.4v-53.9h11.9v43.1h26.9v10.8H1435.4z"/>
		<path class="st1" d="M1509.2,212.3c-16.6,0-28.6-12.4-28.6-27.7v-0.2c0-15.3,12.1-27.9,28.7-27.9c16.6,0,28.6,12.4,28.6,27.7v0.2
			C1537.9,199.7,1525.8,212.3,1509.2,212.3z M1525.5,184.4c0-9.2-6.8-16.9-16.3-16.9c-9.5,0-16.2,7.5-16.2,16.8v0.2
			c0,9.2,6.8,16.9,16.3,16.9c9.5,0,16.2-7.5,16.2-16.8V184.4z"/>
	</g>
	<g>
		<path class="st1" d="M552.4,301.7v-53.9H593v10.5h-28.9v10.9h25.4v10.5h-25.4v11.3h29.3v10.5H552.4z"/>
		<path class="st1" d="M623.1,302.5c-8.2,0-16.4-2.8-22.9-8.6l7-8.4c4.9,4,9.9,6.5,16.1,6.5c4.9,0,7.8-1.9,7.8-5.1v-0.2
			c0-3-1.8-4.5-10.9-6.9c-10.9-2.8-17.9-5.8-17.9-16.5v-0.2c0-9.8,7.9-16.2,18.9-16.2c7.9,0,14.6,2.5,20,6.9l-6.2,8.9
			c-4.8-3.3-9.5-5.3-14-5.3c-4.5,0-6.9,2.1-6.9,4.7v0.2c0,3.5,2.3,4.7,11.6,7.1c10.9,2.8,17.1,6.8,17.1,16.2v0.2
			C642.9,296.5,634.8,302.5,623.1,302.5z"/>
		<path class="st1" d="M678.5,302.6c-15.9,0-27.6-12.2-27.6-27.7v-0.2c0-15.3,11.5-27.9,28.1-27.9c10.2,0,16.2,3.4,21.3,8.3
			l-7.5,8.7c-4.2-3.8-8.4-6.1-13.8-6.1c-9.1,0-15.6,7.5-15.6,16.8v0.2c0,9.2,6.4,16.9,15.6,16.9c6.2,0,9.9-2.5,14.2-6.3l7.5,7.6
			C695.1,298.9,688.9,302.6,678.5,302.6z"/>
		<path class="st1" d="M736.3,302.6c-16.6,0-28.6-12.4-28.6-27.7v-0.2c0-15.3,12.1-27.9,28.7-27.9c16.6,0,28.6,12.4,28.6,27.7v0.2
			C765,290.1,752.9,302.6,736.3,302.6z M752.6,274.7c0-9.2-6.8-16.9-16.3-16.9c-9.5,0-16.2,7.5-16.2,16.8v0.2
			c0,9.2,6.8,16.9,16.3,16.9s16.2-7.5,16.2-16.8V274.7z"/>
		<path class="st1" d="M775.5,301.7v-53.9h11.9v43.1h26.9v10.8H775.5z"/>
		<path class="st1" d="M863.3,301.7l-4.9-12.1h-22.8l-4.9,12.1h-12.1l23.1-54.3h10.9l23.1,54.3H863.3z M847,261.7l-7.2,17.5h14.3
			L847,261.7z"/>
		<path class="st1" d="M916.8,301.7l-11.5-17.2h-9.3v17.2H884v-53.9h24.6c12.7,0,20.3,6.7,20.3,17.8v0.2c0,8.7-4.7,14.2-11.5,16.7
			l13.2,19.2H916.8z M917,266.2c0-5.1-3.5-7.7-9.3-7.7h-11.8V274h12c5.8,0,9.1-3.1,9.1-7.6V266.2z"/>
		<path class="st1" d="M969.1,264.9l-8.3-6.7c5.3-7.2,10.5-11.2,20.1-11.2c11.5,0,18.6,6.6,18.6,16.7c0,9-4.6,13.6-14.2,20.9
			l-8.8,6.8h23.5v10.2h-39.9v-9.4l17.9-14.7c6.7-5.5,9.3-8.5,9.3-12.9c0-4.5-3-7-7.2-7C976,257.7,973.1,260,969.1,264.9z"/>
		<path class="st1" d="M1032.3,302.6c-14.4,0-23.9-12.1-23.9-27.8s9.6-27.9,24-27.9s23.9,12.1,23.9,27.8
			C1056.4,290.4,1046.7,302.6,1032.3,302.6z M1032.3,257.6c-7.2,0-11.7,7.2-11.7,17.1c0,9.9,4.7,17.2,11.9,17.2
			c7.2,0,11.7-7.2,11.7-17.1S1039.5,257.6,1032.3,257.6z"/>
		<path class="st1" d="M1073.3,264.9l-8.3-6.7c5.3-7.2,10.5-11.2,20.1-11.2c11.5,0,18.6,6.6,18.6,16.7c0,9-4.6,13.6-14.2,20.9
			l-8.8,6.8h23.5v10.2h-39.9v-9.4l17.9-14.7c6.7-5.5,9.3-8.5,9.3-12.9c0-4.5-3-7-7.2-7C1080.2,257.7,1077.3,260,1073.3,264.9z"/>
		<path class="st1" d="M1121.3,264.9l-8.3-6.7c5.3-7.2,10.5-11.2,20.1-11.2c11.5,0,18.6,6.6,18.6,16.7c0,9-4.6,13.6-14.2,20.9
			l-8.8,6.8h23.5v10.2h-39.9v-9.4l17.9-14.7c6.7-5.5,9.3-8.5,9.3-12.9c0-4.5-3-7-7.2-7C1128.1,257.7,1125.3,260,1121.3,264.9z"/>
		<path class="st1" d="M1160.3,283.4v-11.2h23.7v11.2H1160.3z"/>
		<path class="st1" d="M1200.7,264.9l-8.3-6.7c5.3-7.2,10.5-11.2,20.1-11.2c11.5,0,18.6,6.6,18.6,16.7c0,9-4.6,13.6-14.2,20.9
			l-8.8,6.8h23.5v10.2h-39.9v-9.4l17.9-14.7c6.7-5.5,9.3-8.5,9.3-12.9c0-4.5-3-7-7.2-7C1207.5,257.7,1204.7,260,1200.7,264.9z"/>
		<path class="st1" d="M1263.9,302.6c-14.4,0-23.9-12.1-23.9-27.8s9.6-27.9,24-27.9s23.9,12.1,23.9,27.8
			C1287.9,290.4,1278.3,302.6,1263.9,302.6z M1263.9,257.6c-7.2,0-11.7,7.2-11.7,17.1c0,9.9,4.7,17.2,11.9,17.2
			c7.2,0,11.7-7.2,11.7-17.1S1271,257.6,1263.9,257.6z"/>
		<path class="st1" d="M1304.8,264.9l-8.3-6.7c5.3-7.2,10.5-11.2,20.1-11.2c11.5,0,18.6,6.6,18.6,16.7c0,9-4.6,13.6-14.2,20.9
			l-8.8,6.8h23.5v10.2h-39.9v-9.4l17.9-14.7c6.7-5.5,9.3-8.5,9.3-12.9c0-4.5-3-7-7.2-7C1311.7,257.7,1308.8,260,1304.8,264.9z"/>
		<path class="st1" d="M1346.1,258v-10.2h36.4v8.9l-13.6,13c7.4,1.2,14.5,5.1,14.5,15.2c0,10.2-7.4,17.7-19.4,17.7
			c-9.7,0-16.4-3.8-21-9.3l8.2-7.8c3.7,4.2,7.5,6.5,13,6.5c4.5,0,7.6-2.5,7.6-6.6c0-4.5-3.8-6.9-10.5-6.9h-4.9l-1.8-7.5l12.9-12.9
			H1346.1z"/>
	</g>
</g>
</svg>
